<svg id="SvgjsSvg1001" width="550" height="550" xmlns="http://www.w3.org/2000/svg" version="1.1" xmlns:xlink="http://www.w3.org/1999/xlink" xmlns:svgjs="http://svgjs.com/svgjs"><defs id="SvgjsDefs1002"></defs><g id="SvgjsG1008"><svg xmlns="http://www.w3.org/2000/svg" enable-background="new 0 0 3000 2000" viewBox="0 0 3000 2000" width="550" height="550"><ellipse cx="1473.507" cy="973.644" fill="#354187" rx="411.562" ry="50.661" class="color354187 svgShape"></ellipse><path fill="#cbd6f5" d="M1396.071,1826.882c-5.773,10.322-15.996,17.274-25.85,23.859h-337.167
			c-13.833-2.506-25.676-14.473-37.888-21.524c-12.137-7.002-22.114-19.436-22.286-33.491c-0.172-17.79,18.084-33.392,35.653-30.395
			c6.314,1.106,12.606,4.128,18.797,2.605c10.319-2.605,13.588-16.144,10.958-26.489c-2.629-10.27-8.967-19.485-10.491-29.976
			c-2.876-20.149,16.512-40.272,36.758-38.11c17.79,1.916,30.861,17.199,40.911,32.041c5.357,7.985,12.261,17.151,21.819,16.684
			c7.52-0.417,13.49-7.077,15.751-14.251c2.285-7.176,1.818-14.866,1.867-22.458c0.295-21.353,5.552-42.706,15.307-61.798
			c7.643-14.89,19.535-29.412,36.047-32.213c17.985-2.973,35.898,9.805,43.294,26.44c7.469,16.634,6.241,35.874,1.818,53.516
			c-3.268,12.997-7.716,28.182,0.712,38.552c1.917,2.409,4.374,4.276,7.052,5.724c10.443,5.652,24.327,4.079,33.319-3.734
			c4.152-3.612,7.224-8.329,11.425-11.844c10.517-8.747,27.274-7.936,37.766,0.762c10.493,8.699,14.596,23.859,11.205,37.101
			c-1.917,7.544-6.021,14.376-8.404,21.772c-2.457,7.421-2.973,16.167,1.622,22.408c11.794,15.996,40.394,0.295,56.146,12.433
			C1401.55,1801.721,1401.845,1816.563,1396.071,1826.882z" class="colorCBD6F5 svgShape"></path><path fill="#ffffff" d="M1232.893 1718.573c-1.228 8.82-6.29 16.854-13.686 21.819-7.912 5.307-18.969 7.297-23.908 16.217-.148.271-.344.393-.54.491-2.334 9.534-4.668 19.068-6.683 28.625-4.447 21.083-7.347 43.442-4.915 65.016h-2.408c-.688-6.045-.958-12.162-.91-18.255.099-10.345 1.179-20.542 2.779-30.665-.467 0-.91-.247-1.033-.886-.957-5.356-4.668-9.459-8.355-13.244-4.3-4.446-8.623-8.845-12.949-13.268-7.617-7.863-15.381-17.003-15.406-28.576 0-1.573 2.433-1.573 2.433 0 .024 11.941 8.919 20.911 16.708 28.896 4.152 4.274 8.428 8.477 12.507 12.851 2.8 3.022 5.429 6.339 6.757 10.246 3.981-22.925 10.589-45.482 15.406-68.234 3.072-14.497 5.406-29.585 5.798-44.622-.097-.049-.196-.098-.295-.172-6.953-6.731-14.718-14.767-13.932-25.259.122-1.548 2.555-1.572 2.432 0-.687 9.141 5.701 16.168 11.819 22.164.123-17.422-2.482-34.694-9.755-50.814-.639-1.401 1.45-2.655 2.113-1.229 3.538 7.839 5.995 16.045 7.617 24.424 4.324-5.208 7.176-11.45 8.281-18.134.269-1.547 2.605-.884 2.358.639-1.277 7.667-4.816 14.841-10.074 20.567 1.426 8.452 2.015 17.077 1.917 25.702-.271 23.342-5.357 46.021-10.837 68.602 5.186-5.554 12.974-8.01 19.509-11.745 8.11-4.619 13.589-12.556 14.89-21.795C1230.755 1716.386 1233.114 1717.048 1232.893 1718.573zM1127.334 1850.741h-2.456c.221-5.406.172-10.836-.173-16.241-.073-1.351-.196-2.704-.318-4.055-.172.32-.493.542-.983.491-16.587-1.719-32.188-9.902-42.902-22.703-1.007-1.181.712-2.924 1.719-1.721 10.297 12.286 25.235 20.322 41.182 21.968.368.049.663.221.835.466-1.155-11.401-3.735-22.654-8.282-33.172-4.078-9.484-9.581-18.28-15.651-26.61-.196.074-.393.074-.639.024-13.294-3.857-30.641 1.942-41.108-9.656-1.032-1.179.689-2.9 1.719-1.721 4.399 4.866 11.033 6.537 17.349 7.028 6.879.516 13.808 0 20.565 1.474-.368-.467-.714-.958-1.08-1.425-7.471-9.779-15.579-19.042-23.295-28.625-3.784-4.742-7.494-9.558-10.958-14.546-3.636-5.234-6.88-10.763-8.796-16.88-.467-1.499 1.891-2.138 2.358-.639 2.212 7.077 6.339 13.292 10.665 19.264 2.777 3.857 5.7 7.567 8.649 11.252 5.111-7.961 6.143-18.231 2.383-26.979-.613-1.425 1.5-2.678 2.113-1.229 4.203 9.805 3.22 21.402-2.85 30.249.885 1.105 1.77 2.211 2.678 3.317 12.434 15.11 25.628 30.101 34.67 47.495 1.941-5.208 6.021-9.385 8.306-14.472 3.538-7.912.54-16.659-2.113-24.325-.516-1.5 1.843-2.139 2.359-.663 2.702 7.789 5.528 16.512 2.506 24.645-2.383 6.413-8.084 11.253-9.46 18.059 1.572 3.244 2.997 6.561 4.227 10.001C1126.302 1816.857 1127.948 1833.812 1127.334 1850.741zM1069.2 1850.741h-2.507c-1.424-6.83-4.078-13.391-8.231-19.042-.811-1.106-1.72-2.113-2.629-3.145-.197.073-.417.099-.664.049-4.521-1.056-8.525 2.481-12.554 3.906-4.055 1.427-8.502 1.033-12.361-.81-1.424-.663-.172-2.777 1.229-2.089 4.104 1.942 8.525 1.598 12.531-.344 3.072-1.474 6.118-3.194 9.46-3.243-3.465-3.515-7.372-6.611-11.474-9.338-6.757-4.546-14.032-8.28-21.131-12.236-3.563-1.99-7.2-3.981-10.542-6.34-2.579-1.794-4.938-4.054-5.575-7.249-.321-1.522 2.038-2.186 2.333-.638.86 4.128 5.159 6.339 8.452 8.329 4.154 2.506 8.428 4.816 12.679 7.15.319.198.639.37.983.542.762-4.988.172-10.074-1.598-14.792-.54-1.473 1.82-2.112 2.36-.664 1.94 5.21 2.433 10.786 1.572 16.265-.024.149-.097.271-.196.394 12.285 6.856 24.695 14.694 31.919 27.102C1066.225 1839.659 1068.092 1845.114 1069.2 1850.741zM1326.803 1741.547c-.908 3.416-4.52 4.988-7.518 6.167-3.637 1.401-7.543 2.137-11.425 2.261-.049 0-.099-.024-.148-.024-1.302 1.646-2.655 3.218-4.029 4.791-7.224 8.133-14.449 16.069-20.542 25.112-5.847 8.648-10.836 17.863-14.94 27.446-2.899 6.757-5.306 13.711-7.273 20.787 7.987-4.078 16.857-6.07 24.966-9.951 7.936-3.784 15.798-10.272 16.635-19.632.148-1.573 2.579-1.573 2.456 0-.86 9.459-7.912 16.536-15.947 20.787-9.286 4.915-19.852 6.782-28.967 12.016-1.646 6.387-2.9 12.9-3.76 19.435h-2.483c.738-5.75 1.795-11.474 3.122-17.126 2.727-11.45 6.707-22.604 11.745-33.245-.024-.073-.074-.122-.099-.196-3.243-11.672-11.818-23.981-5.774-36.243.688-1.4 2.802-.171 2.113 1.229-5.21 10.541 1.843 21.844 5.283 32.017 3.513-7.028 7.495-13.785 11.967-20.247 2.751-3.956 5.7-7.813 8.796-11.523h-.025c-4.006-9.166-5.234-19.216-3.539-29.069.271-1.547 2.629-.884 2.36.639-1.549 8.846-.491 18.061 2.973 26.365 3.243-3.784 6.658-7.421 9.949-11.18 7.151-8.157 13.884-17.716 14.351-28.944.049-1.572 2.506-1.572 2.433 0-.37 9.091-4.498 17.052-9.805 24.203 2.751-.246 5.455-.812 8.06-1.721 2.358-.86 5.995-2.064 6.733-4.791C1324.863 1739.385 1327.222 1740.024 1326.803 1741.547zM1375.382 1818.184c-5.847.516-11.623 1.917-17.127 4.054-.246.321-.639.467-1.032.443-1.058.443-2.162.861-3.22 1.353-4.741 2.26-9.189 5.111-13.268 8.428 7.544.613 14.865 2.628 21.647 5.971 1.401.712.172 2.801-1.228 2.112-6.978-3.439-14.596-5.429-22.336-5.797-.221 0-.417-.074-.565-.172-5.086 4.594-9.484 9.949-12.827 15.97-.023.075-.073.123-.099.196h-2.727c1.13-2.162 2.335-4.276 3.735-6.314 3.735-5.43 8.28-10.295 13.44-14.374 4.989-3.956 10.517-7.175 16.364-9.583.148-5.333 1.13-10.639 2.973-15.652.542-1.45 2.9-.811 2.36.663-1.671 4.522-2.605 9.263-2.851 14.055 5.382-1.966 11.01-3.267 16.758-3.784C1376.953 1815.63 1376.953 1818.061 1375.382 1818.184z" class="colorFFF svgShape"></path><path fill="#ffd6eb" d="M1034.252,1530.985c-4.983-5.976-9.334-12.419-13.015-19.229c6.291-2.075,11.397-10.047,8.026-20.251
		c-1.519-4.597-5.953-12.58-8.608-16.596c-7.619-11.525-9.027-27.006-3.683-40.475c-5.044,8.532-10.12,17.131-13.444,26.352
		c-3.323,9.22-8.46,21.37-6.15,30.531c2.232,8.848,8.439,21.242,20.286,21.012c2.677,5.099,5.718,10.002,9.117,14.668
		c-12.181-6.336-24.68-12.121-37.465-17.32c-0.056-0.184-0.141-0.368-0.297-0.545c-5.648-6.492-10.524-13.573-14.579-21.103
		c6.306-2.059,11.434-10.04,8.058-20.261c-1.519-4.598-5.953-12.58-8.607-16.596c-7.618-11.526-9.026-27.006-3.683-40.475
		c-5.044,8.532-10.12,17.131-13.444,26.352c-3.324,9.22-8.46,21.37-6.15,30.53c2.232,8.849,8.439,21.243,20.287,21.013
		c3.443,6.553,7.493,12.781,12.124,18.601c-12.271-4.774-24.781-9.034-37.509-12.728c-5.641-6.487-10.511-13.56-14.562-21.083
		c6.305-2.059,11.434-10.04,8.058-20.261c-1.519-4.598-5.953-12.58-8.607-16.596c-7.619-11.526-9.027-27.006-3.683-40.476
		c-5.044,8.532-10.12,17.131-13.444,26.352c-3.323,9.221-8.46,21.37-6.15,30.53c2.232,8.851,8.44,21.246,20.292,21.013
		c3.506,6.672,7.64,13.006,12.376,18.917c-6.111-1.687-12.259-3.279-18.459-4.712c-5.187-1.197-10.428-2.199-15.664-3.217
		c-6.523-4.401-12.546-9.41-18.005-14.946c5.623-3.582,8.504-12.45,2.464-21.26c-2.722-3.97-9.213-10.401-12.896-13.528
		c-10.566-8.974-16.092-23.29-14.447-37.434c-2.672,9.384-5.357,18.84-6.154,28.436c-0.797,9.596-2.591,22.433,2.128,30.526
		c4.56,7.816,13.971,17.975,25.545,14.719c4.127,4.289,8.577,8.281,13.338,11.931c-16.137-2.842-32.486-4.771-48.947-5.917
		c-7.526-3.536-14.584-7.823-21.101-12.761c5.132-4.265,6.784-13.366-0.49-21.214c-3.274-3.533-10.66-8.979-14.777-11.556
		c-11.814-7.397-19.335-20.713-19.664-34.819c-1.361,9.571-5.455,20.133-4.913,29.661c0.541,9.527,3.269,21.453,9.116,28.767
		c5.646,7.061,16.463,15.77,27.573,11.039c4.968,3.843,10.246,7.319,15.808,10.377c-14.635-0.759-29.337-0.842-44.069-0.26
		c-0.117-0.09-0.219-0.189-0.379-0.253c-8.104-3.23-15.744-7.303-22.828-12.113c4.938-4.49,6.142-13.64-1.549-21.108
		c-3.46-3.359-11.135-8.423-15.391-10.789c-12.211-6.792-20.42-19.684-21.463-33.712c-0.88,9.594-4.292,20.478-3.267,29.937
		c1.024,9.459,4.204,21.03,10.432,28.028c6.013,6.757,17.293,14.903,28.186,9.654c5.845,4.051,12.07,7.606,18.616,10.615
		c-15.378,0.85-30.762,2.411-46.084,4.729c-0.445,0.067-6.893,0.795-16.97,0.68c0.787-5.969-3.489-12.879-13.542-14.561
		c-4.903-0.821-14.438-0.731-19.476-0.329c-14.458,1.154-28.86-4.73-37.658-15.385c4.629,8.147,9.299,16.353,15.511,23.365
		c6.213,7.012,13.967,16.889,23.329,19.126c9.036,2.16,23.437,2.591,29.979-7.469c6.303,0.078,12.644-0.277,18.969-1.091
		c0.067-0.005,0.115,0.019,0.185,0.008c0.31-0.047,0.62-0.082,0.931-0.129c0.15-0.02,0.302-0.041,0.454-0.063
		c9.149-1.357,18.318-2.434,27.493-3.266c-5.773,3.512-11.282,7.42-16.496,11.678c-0.067-0.034-0.128-0.079-0.196-0.111
		c-11.313-5.423-22.977,4.406-29.045,12.147c-6.068,7.741-9.018,19.823-9.86,29.542c-0.843,9.72,2.756,20.44,3.811,30.104
		c0.776-14.364,8.705-28.297,20.733-36.431c4.191-2.833,11.735-8.754,15.116-12.517c7.026-7.821,6.283-16.35,2.076-20.755
		c6.668-5.394,13.83-10.198,21.414-14.308c15.061-1.13,30.125-1.522,45.137-1.229c-7.269,4.08-14.16,8.767-20.6,13.988
		c-10.881-3.949-22.222,5.595-28.278,13.098c-6.265,7.763-9.502,19.726-10.575,29.314c-1.071,9.588,2.288,20.056,3.12,29.546
		c1.113-14.159,9.388-28.062,21.637-36.351c4.267-2.888,11.971-8.893,15.448-12.677c7.734-8.414,6.571-17.422,1.652-21.307
		c7.061-5.649,14.669-10.637,22.74-14.836c0.328-0.171,0.54-0.409,0.707-0.665c4.169,0.133,8.334,0.321,12.492,0.565
		c11.144,0.653,22.203,1.832,33.209,3.267c-6.718,3.878-13.108,8.271-19.102,13.134c-10.875-3.929-22.205,5.607-28.257,13.105
		c-6.265,7.764-9.503,19.727-10.575,29.314c-1.072,9.588,2.287,20.056,3.12,29.546c1.113-14.159,9.388-28.062,21.637-36.351
		c4.268-2.888,11.972-8.893,15.449-12.677c7.724-8.403,6.574-17.4,1.67-21.293c6.656-5.315,13.797-10.044,21.351-14.084
		c14.476,2.057,28.789,4.795,42.907,8.19c-7.465,4.149-14.535,8.938-21.132,14.286c-10.881-3.95-22.223,5.594-28.279,13.098
		c-6.265,7.763-9.503,19.726-10.574,29.313c-1.072,9.588,2.287,20.057,3.12,29.546c1.113-14.159,9.388-28.061,21.637-36.35
		c4.268-2.889,11.971-8.893,15.448-12.677c7.733-8.414,6.571-17.422,1.651-21.307c7.061-5.649,14.67-10.637,22.74-14.837
		c0.003-0.002,0.004-0.004,0.006-0.005c12.789,3.217,25.371,7.046,37.76,11.351c-7.593,4.173-14.776,9.016-21.467,14.442
		c-10.726-3.873-21.903,5.532-27.872,12.928c-6.181,7.659-9.374,19.46-10.432,28.919c-1.058,9.459,2.256,19.786,3.078,29.147
		c1.098-13.968,9.261-27.683,21.345-35.86c4.21-2.849,11.809-8.773,15.24-12.506c7.62-8.291,6.485-17.167,1.647-21.006
		c6.963-5.57,14.465-10.488,22.423-14.629c0.036-0.018,0.053-0.048,0.086-0.067c12.14,4.351,24.024,9.286,35.682,14.673
		c-7.316,4.097-14.25,8.808-20.727,14.06c-10.881-3.949-22.222,5.594-28.278,13.097c-6.265,7.764-9.503,19.727-10.574,29.314
		c-1.072,9.588,2.287,20.056,3.12,29.546c1.114-14.159,9.388-28.061,21.637-36.35c4.267-2.888,11.971-8.894,15.448-12.678
		c7.723-8.403,6.575-17.399,1.671-21.292c6.642-5.304,13.768-10.025,21.305-14.059c1.326,0.629,2.691,1.182,4.01,1.824
		c56.411,27.429,106.089,66.798,144.964,114.892c1.728,2.139,5.422-0.569,3.691-2.712c-21.956-27.162-47.292-51.608-75.368-72.698
		C1070.387,1552.355,1052.701,1541.038,1034.252,1530.985z" class="colorFFD6EB svgShape"></path><path fill="#cbd6f5" d="M1189.705,1256.356c4.462,16.771,2.401,36.177,2.401,36.177s1.241,48.674-10.413,90.853
			c-4.23,14.886-10.487,37.73-27.889,61.007c-1.917,2.385-3.834,4.768-5.755,7.154c-1.953,2.327-3.983,4.536-6.218,6.55
			c-1.6,1.604-3.198,3.207-4.869,4.694c-0.841,0.87-1.657,1.641-2.57,2.392c-28.349,25.554-60.051,34.528-72.312,37.568
			c-11.833,2.683-54.59,11.207-100.405-7.884c-28.334-11.849-63.687-36.275-58.668-55.036c1.172-3.549,3.462-6.501,2.848-11.284
			c-0.879-9.542-11.371-13.969-24.71-21.166c-24.726-13.266-37.179-19.718-40.977-28.944c-1.886-4.21-2.29-14.798-3.193-35.748
			c-0.645-14.543-0.115-15.377-1.55-17.988c-7.538-12.737-28.831-2.406-51.13-12.796c-17.044-8.099-31.313-26.696-30.952-45.419
			c0.391-11.017,5.495-13.563,8.668-34.176c2.211-14.571,3.196-22.109,1.089-29.218c-8.253-27.645-56.628-20.188-61.404-43.578
			c-2.342-11.561,6.917-25.654,15.744-39.14c9.213-13.653,14.357-15.237,17.444-21.168c18.073-33.735-89.229-101.775-79.441-116.703
			c7.507-11.322,89.658,1.403,136.943,30.315c7.248,4.623,21.166,13.994,39.308,11.28c20.943-2.955,26.458-18.912,40.704-17.97
			c7.161,0.652,10.865,5.007,42.523,46.932c10.038,13.43,16.961,22.781,24.923,21.11c7.792-1.561,10.636-12.595,21.767-14.579
			c1.752-0.47,5.631-0.829,11.611,1.569c19.971,7.532,35.283,33.758,42.509,46.777c14.567,25.966,19.738,40.39,26.412,39.137
			c6.58-1.522,6.033-16.044,17.391-21.379c8.129-3.587,17.661-0.268,23.223,3.138c7.838,4.902,10.2,12.915,14.806,37.318
			c4.769,25.037,4.645,29.062,7.688,42.224c4.864,22.758,9.379,43.44,19.069,43.944c8.755,0.448,12.677-15.553,29.057-19.6
			c0.695-0.199,13.222-3.082,23.223,3.139C1183.263,1239.957,1187.486,1247.923,1189.705,1256.356z" class="colorCBD6F5 svgShape"></path><path fill="#ffffff" d="M1141.336,1294.285c8.05,13.047-1.89,28.111-6.869,40.36c-4.734,11.647-8.503,23.688-11.251,35.957
			c-5.239,23.391-6.579,47.528-4.35,71.381c-0.069-0.071-0.127-0.143-0.197-0.213c-18.915-20.456-39.656-39.409-59.689-58.406
			c-20.651-19.586-41.048-39.663-58.745-62.053c-14.742-18.703-26.277-39.059-37.095-59.958c-0.008-0.011-0.012-0.024-0.019-0.035
			c4.596-26.063,19.102-48.528,25.859-73.849c5.92-22.184,3.167-49.464-18.176-62.51c-1.898-1.16-3.457,1.925-1.566,3.081
			c22.568,13.795,21.653,43.545,14.28,65.615c-7.087,21.217-18.125,40.84-22.886,62.797c-0.019-0.036-0.037-0.07-0.057-0.106
			c-1.263-2.474-2.526-4.949-3.789-7.423c-10.253-20.278-20.967-40.503-36.12-57.545c-10.426-11.863-21.865-22.743-33.597-33.19
			c2.881-24.641-1.336-50.96-13.539-72.709c-1.088-1.941-3.991-0.065-2.906,1.869c11.371,20.269,15.525,44.875,13.242,67.95
			c-0.602-0.562-1.224-1.042-1.829-1.607c-28.294-24.942-57.986-48.489-88.708-70.307c-2.69-1.886-5.42-3.828-8.169-5.675
			c-1.782-1.236-4.087,1.314-2.304,2.55c29.387,20.129,57.533,42.289,84.627,65.373c14.389,12.272,28.504,24.887,41.763,38.464
			c3.014,3.156,5.936,6.289,8.623,9.573c0.003,0.005,0.009,0.009,0.012,0.013c-11.49,6.153-24.432,1.519-36.048-1.81
			c-10.234-2.933-20.766-4.44-31.42-4.31c-21.052,0.255-41.81,6.728-59.278,18.466c-1.843,1.239,0.021,4.148,1.87,2.906
			c18.543-12.461,40.741-18.71,63.07-17.847c11.502,0.444,22.084,3.47,33.09,6.512c10.298,2.846,21.219,4.24,30.934-1.162
			c0.038-0.021,0.028-0.062,0.065-0.086c0.005,0.007,0.012,0.013,0.017,0.021c8.651,10.378,16.101,21.445,22.788,33.497
			c13.575,24.55,24.501,50.474,40.127,73.87c15.217,22.753,33.751,43.126,53.123,62.384c1.643,1.655,3.342,3.273,5.038,4.894
			c0.005,0.006,0.012,0.011,0.019,0.016c-28.996,5.745-59.558,11.518-88.494,2.356c-6.693-2.121-13.083-5.091-19-8.873
			c-5.727-3.662-11.083-8.028-17.41-10.657c-11.818-4.909-24.346-1.804-36.141,1.494c-2.146,0.6-1.108,3.897,1.031,3.299
			c6.745-1.885,13.604-3.792,20.652-3.964c7.232-0.174,13.59,2.063,19.7,5.834c6.002,3.701,11.515,8.036,17.846,11.196
			c5.7,2.846,11.75,5.001,17.922,6.562c28.295,7.156,57.524,1.485,85.557-4.072c0.474-0.094,0.731-0.361,0.922-0.657
			c0.015,0.011,0.028,0.025,0.04,0.038c25.231,24.528,51.9,47.967,75.497,74.04c0.069,0.077,0.145,0.162,0.217,0.244
			c0.166,0.278,0.318,0.52,0.589,0.66c0.023,0.029,0.052,0.062,0.077,0.089c4.88,5.408,9.641,10.892,14.111,16.562
			c0.913-0.751,1.728-1.522,2.57-2.392c-4.605-5.749-9.403-11.29-14.318-16.758c-0.012-0.013-0.024-0.026-0.036-0.038
			c-2.997-26.793-1.261-53.969,5.283-80.136c3.336-13.338,7.976-26.221,13.595-38.761c4.901-10.943,9.67-23.478,2.757-34.684
			C1143.072,1290.521,1140.166,1292.391,1141.336,1294.285z" class="colorFFF svgShape"></path><path fill="#ffd6eb" d="M1768.841,1403.484c7.679,1.258,15.185,3.282,22.425,6.023c-3.399,5.686-2.043,15.056,7.183,20.565
		c4.158,2.483,12.734,5.617,17.369,6.916c13.303,3.729,24.498,14.514,29.272,28.195c-1.769-9.752-3.558-19.576-7.079-28.723
		c-3.521-9.147-7.587-21.695-15.329-27.11c-7.478-5.23-20.281-10.54-29.09-2.612c-5.361-2.104-10.869-3.821-16.492-5.126
		c13.357-3.18,26.594-6.985,39.664-11.421c0.162,0.103,0.348,0.186,0.581,0.218c8.52,1.213,16.84,3.376,24.834,6.417
		c-3.421,5.682-2.076,15.074,7.166,20.594c4.157,2.483,12.734,5.616,17.369,6.917c13.303,3.73,24.498,14.513,29.272,28.195
		c-1.769-9.752-3.558-19.577-7.079-28.724c-3.52-9.147-7.588-21.695-15.328-27.109c-7.478-5.231-20.283-10.541-29.091-2.613
		c-6.892-2.702-14.029-4.761-21.34-6.131c12.403-4.421,24.65-9.386,36.691-14.922c8.511,1.214,16.822,3.376,24.808,6.412
		c-3.42,5.683-2.076,15.074,7.165,20.593c4.157,2.483,12.734,5.617,17.369,6.917c13.304,3.73,24.499,14.513,29.273,28.195
		c-1.769-9.752-3.558-19.576-7.079-28.724c-3.521-9.147-7.588-21.695-15.329-27.109c-7.479-5.231-20.286-10.542-29.094-2.61
		c-7.017-2.75-14.288-4.835-21.738-6.205c5.725-2.724,11.416-5.542,17.042-8.517c4.705-2.49,9.324-5.161,13.949-7.818
		c7.812-0.941,15.645-1.095,23.395-0.481c-1.908,6.388,1.717,14.979,12.05,17.688c4.656,1.22,13.773,1.836,18.604,1.79
		c13.863-0.129,27.409,7.08,35.421,18.851c-4.12-8.844-8.278-17.752-13.955-25.53c-5.677-7.777-12.721-18.659-21.586-21.69
		c-8.563-2.927-22.327-4.449-28.948,5.587c-5.927-0.542-11.904-0.648-17.893-0.292c14.062-8.411,27.686-17.651,40.884-27.557
		c8.005-2.252,16.148-3.629,24.306-4.16c-1.09,6.583,3.617,14.546,14.253,15.72c4.788,0.528,13.937-0.187,18.736-0.932
		c13.774-2.138,28.174,3.01,37.655,13.46c-5.234-8.128-9.051-18.793-15.695-25.643c-6.644-6.85-16.51-14.082-25.718-15.786
		c-8.89-1.645-22.768-1.151-28.074,9.696c-6.271,0.345-12.538,1.171-18.744,2.498c11.563-9.003,22.734-18.561,33.492-28.642
		c0.147-0.008,0.29,0,0.452-0.057c8.242-2.861,16.684-4.781,25.188-5.78c-0.796,6.626,4.282,14.334,14.985,14.947
		c4.814,0.276,13.932-0.918,18.698-1.913c13.678-2.856,28.322,1.522,38.29,11.446c-5.613-7.83-10.155-18.293-17.12-24.775
		c-6.964-6.482-16.94-13.151-26.229-14.366c-8.969-1.174-22.829,0.048-27.63,11.145c-7.07,0.761-14.104,2.147-21.023,4.156
		c11.072-10.705,21.683-21.954,31.752-33.733c0.292-0.342,4.692-5.112,12.387-11.62c3.311,5.029,11.067,7.455,19.768,2.149
		c4.244-2.588,11.396-8.895,14.942-12.497c10.177-10.334,24.918-15.31,38.543-13.01c-8.832-3.131-17.732-6.28-27.019-7.517
		c-9.286-1.237-21.613-3.63-30.157,0.804c-8.246,4.28-19.418,13.378-17.781,25.265c-4.818,4.066-9.38,8.484-13.629,13.239
		c-0.047,0.048-0.1,0.061-0.145,0.115c-0.204,0.239-0.415,0.468-0.619,0.706c-0.101,0.114-0.202,0.229-0.303,0.344
		c-6.03,7.013-12.258,13.828-18.651,20.461c2.067-6.433,3.675-12.994,4.831-19.625c0.073-0.018,0.148-0.024,0.221-0.044
		c12.104-3.303,14.49-18.368,14.013-28.193c-0.477-9.824-6.154-20.89-11.876-28.791c-5.723-7.901-15.46-13.652-22.582-20.269
		c8.813,11.37,11.935,27.094,8.163,41.115c-1.315,4.885-3.145,14.299-3.239,19.357c-0.195,10.511,5.948,16.475,12.012,17.052
		c-1.512,8.442-3.784,16.762-6.829,24.832c-10.649,10.711-21.783,20.865-33.326,30.467c2.827-7.842,4.97-15.896,6.423-24.058
		c10.812-4.135,13.142-18.772,12.811-28.409c-0.343-9.969-5.723-21.134-11.187-29.086c-5.464-7.95-14.855-13.668-21.694-20.299
		c8.424,11.435,11.265,27.363,7.427,41.646c-1.337,4.977-3.233,14.558-3.385,19.695c-0.342,11.423,6.432,17.474,12.695,17.192
		c-1.642,8.892-4.132,17.643-7.487,26.1c-0.136,0.343-0.141,0.662-0.099,0.965c-3.24,2.628-6.512,5.211-9.816,7.747
		c-8.854,6.799-17.988,13.144-27.249,19.261c2.542-7.328,4.499-14.832,5.849-22.432c10.794-4.145,13.121-18.771,12.79-28.401
		c-0.343-9.97-5.724-21.135-11.187-29.086c-5.464-7.951-14.854-13.669-21.694-20.3c8.424,11.435,11.265,27.362,7.428,41.646
		c-1.338,4.977-3.232,14.559-3.386,19.696c-0.341,11.408,6.416,17.459,12.671,17.194c-1.555,8.374-3.86,16.623-6.928,24.622
		c-12.292,7.918-24.907,15.215-37.804,21.885c2.929-8.022,5.141-16.27,6.63-24.632c10.813-4.133,13.144-18.773,12.812-28.41
		c-0.342-9.97-5.723-21.134-11.187-29.085c-5.464-7.952-14.855-13.669-21.694-20.299c8.424,11.434,11.265,27.362,7.427,41.645
		c-1.337,4.977-3.232,14.558-3.385,19.695c-0.341,11.423,6.433,17.474,12.695,17.192c-1.642,8.892-4.131,17.643-7.486,26.1
		c-0.001,0.003,0,0.006-0.002,0.008c-11.776,5.937-23.795,11.275-35.98,16.127c3.011-8.124,5.273-16.487,6.781-24.969
		c10.645-4.091,12.941-18.516,12.615-28.015c-0.339-9.836-5.647-20.849-11.037-28.693c-5.39-7.844-14.654-13.484-21.401-20.025
		c8.311,11.28,11.112,26.993,7.327,41.084c-1.319,4.909-3.188,14.361-3.34,19.429c-0.336,11.255,6.33,17.224,12.501,16.962
		c-1.62,8.768-4.074,17.396-7.382,25.735c-0.015,0.037-0.008,0.071-0.021,0.107c-12.027,4.655-24.242,8.7-36.583,12.255
		c2.851-7.885,5.01-15.986,6.472-24.195c10.813-4.135,13.143-18.773,12.812-28.409c-0.343-9.971-5.723-21.135-11.187-29.086
		c-5.464-7.951-14.854-13.668-21.694-20.3c8.423,11.435,11.264,27.362,7.427,41.646c-1.337,4.977-3.231,14.559-3.385,19.696
		c-0.341,11.408,6.415,17.459,12.671,17.194c-1.552,8.357-3.851,16.59-6.909,24.573c-1.414,0.393-2.808,0.867-4.225,1.245
		c-60.604,16.175-123.932,18.915-184.8,7.989c-2.707-0.487-3.728,3.979-1.016,4.466c34.377,6.171,69.532,8.076,104.563,5.649
		C1727.533,1410.97,1748.313,1407.954,1768.841,1403.484z" class="colorFFD6EB svgShape"></path><path fill="#cbd6f5" d="M1925.271,1844.22c-12.981,6.032-29.039,7.145-29.039,7.145s-39.356,7.998-75.288,4.589
			c-12.698-1.298-32.151-3.1-53.556-13.891c-2.212-1.215-4.423-2.43-6.637-3.647c-2.17-1.253-4.257-2.584-6.213-4.11
			c-1.533-1.07-3.064-2.136-4.512-3.281c-0.828-0.558-1.571-1.11-2.312-1.743c-24.826-19.356-36.668-43.816-40.898-53.338
			c-3.878-9.226-16.942-42.729-8.014-82.682c5.555-24.715,20.318-56.938,36.276-55.554c3.051,0.442,5.777,1.878,9.574,0.693
			c7.625-2.084,9.713-11.242,13.643-23.109c7.224-21.988,10.676-33.029,17.624-37.439c3.149-2.136,11.691-3.985,28.577-7.727
			c11.719-2.612,12.473-2.301,14.388-3.842c9.263-7.951-2.186-23.763,3.051-43.366c4.131-15.006,17.187-29.266,32.446-31.662
			c9.005-1.264,11.805,2.516,29.004,2.133c12.152-0.297,18.416-0.579,23.888-3.311c21.268-10.673,8.265-48.893,26.577-56.131
			c9.054-3.562,21.83,1.934,34.051,7.167c12.412,5.522,14.437,9.473,19.698,11.129c29.995,9.835,69.85-87.089,83.38-81.282
			c10.274,4.472,11.736,73.023-4.957,115.581c-2.714,6.551-8.327,19.201-3.517,33.546c5.407,16.586,19.16,18.774,20.44,30.48
			c0.499,5.91-2.506,9.544-32.013,41.278c-9.467,10.081-16.068,17.047-13.567,23.274c2.387,6.104,11.758,6.83,14.967,15.586
			c0.634,1.355,1.482,4.454,0.393,9.656c-3.25,17.302-22.352,33.505-31.889,41.244c-18.998,15.561-29.971,21.832-27.995,27.073
			c2.181,5.126,13.897,2.596,19.862,11.055c4.081,6.088,2.754,14.306,0.786,19.313c-2.856,7.07-9.025,10.139-28.185,17.384
			c-19.651,7.469-22.938,7.946-33.191,12.308c-17.787,7.219-33.936,13.856-32.954,21.799c0.893,7.176,14.453,8.063,20.092,20.786
			c0.262,0.536,4.402,10.297,0.785,19.313C1937.666,1836.632,1931.802,1841.207,1925.271,1844.22z" class="colorCBD6F5 svgShape"></path><path fill="#ffffff" d="M1887.519,1810.381c-9.441,8.412-23.103,2.502-33.767,0.217c-10.14-2.172-20.461-3.505-30.82-3.975
			c-19.751-0.896-39.548,1.481-58.602,6.717c0.047-0.066,0.098-0.124,0.145-0.191c13.898-18.301,26.314-37.869,38.868-56.868
			c12.942-19.586,26.32-39.036,41.965-56.625c13.074-14.659,27.951-26.952,43.372-38.74c0.007-0.008,0.017-0.013,0.026-0.02
			c21.828-0.01,42.158,8.546,63.695,10.398c18.868,1.623,40.63-4.531,48.161-23.74c0.67-1.708-2.059-2.532-2.727-0.829
			c-7.964,20.311-32.259,23.84-51.243,21.021c-18.251-2.709-35.774-8.857-54.292-9.57c0.027-0.02,0.052-0.04,0.078-0.061
			c1.828-1.381,3.657-2.762,5.485-4.143c14.997-11.24,29.887-22.846,41.552-37.601c8.138-10.172,15.333-21.025,22.133-32.054
			c20.428-1.198,41.199-8.403,57.111-21.438c1.421-1.163-0.52-3.251-1.936-2.093c-14.829,12.146-34.219,19.054-53.289,20.514
			c0.37-0.57,0.671-1.144,1.043-1.717c16.195-26.563,31.057-54.061,44.365-82.147c1.146-2.456,2.33-4.952,3.436-7.45
			c0.748-1.625-1.654-3.131-2.402-1.505c-12.129,26.759-26.086,52.802-40.944,78.124c-7.901,13.45-16.12,26.726-25.244,39.444
			c-2.131,2.901-4.256,5.724-6.537,8.378c-0.003,0.003-0.005,0.009-0.009,0.012c-6.647-8.449-4.742-19.626-3.706-29.539
			c0.913-8.733,0.625-17.504-1.011-26.139c-3.231-17.062-11.469-32.992-23.511-45.495c-1.271-1.319-3.367,0.613-2.092,1.936
			c12.784,13.272,21.048,30.404,23.553,48.663c1.291,9.406,0.352,18.436-0.537,27.812c-0.833,8.773-0.396,17.843,5.386,24.958
			c0.022,0.029,0.054,0.014,0.079,0.04c-0.005,0.005-0.009,0.012-0.014,0.017c-7.187,8.517-15.106,16.157-23.934,23.319
			c-17.991,14.552-37.478,27.148-54.236,43.2c-16.295,15.627-30.181,33.606-43.041,52.106c-1.109,1.572-2.179,3.184-3.252,4.795
			c-0.004,0.005-0.007,0.011-0.01,0.017c-8.83-22.726-17.908-46.72-14.622-71.538c0.761-5.741,2.256-11.357,4.479-16.706
			c2.152-5.178,4.929-10.155,6.156-15.671c2.29-10.304-2.031-20.033-6.403-29.14c-0.795-1.657-3.325-0.341-2.532,1.311
			c2.5,5.208,5.033,10.505,6.185,16.204c1.18,5.849,0.276,11.335-1.91,16.839c-2.144,5.407-4.873,10.506-6.531,16.102
			c-1.494,5.038-2.375,10.262-2.756,15.499c-1.749,24.009,7.054,46.935,15.593,68.906c0.144,0.371,0.398,0.542,0.666,0.654
			c-0.007,0.014-0.016,0.026-0.025,0.038c-16.299,24.016-31.507,49.043-49.295,71.953c-0.053,0.067-0.111,0.141-0.167,0.212
			c-0.202,0.174-0.377,0.333-0.451,0.573c-0.021,0.023-0.043,0.051-0.061,0.075c-3.692,4.74-7.463,9.394-11.426,13.84
			c0.741,0.634,1.485,1.185,2.312,1.743c4.008-4.566,7.819-9.259,11.555-14.035c0.009-0.011,0.018-0.023,0.026-0.035
			c21.332-6.282,43.654-8.775,65.846-7.217c11.313,0.794,22.443,2.713,33.435,5.476c9.592,2.41,20.458,4.482,28.567-2.742
			C1890.825,1811.251,1888.889,1809.159,1887.519,1810.381z" class="colorFFF svgShape"></path><path fill="#c983ae" d="M2042.313,587.277c-0.812-0.475-1.855-0.188-2.339,0.619c-19.552,32.565-39.901,36.851-67.91,42.75
		c-26.294,5.537-59.016,12.429-102.893,45.367c-88.536,66.457-89.149,121.863-78.074,167.298c6.282,25.773,5.531,43.518,3.271,54.76
		c-0.38-13.446-6.269-26.607-15.277-36.538c-12.301-13.563-30.168-18.703-48.068-18.475c-9.819,0.125-19.595,1.65-29.204,3.572
		c-8.886,1.777-17.983,4.109-25.399,9.567c-4.094,3.013-7.257,7.038-9.557,11.566c-7.147-8.14-16.869-14.083-27.526-8.753
		c-0.939,0.47-1.861,1.045-2.77,1.671c-4.74-4.226-10.767-7.101-17.212-8.377c-2.093-4.985-5.217-9.535-9.501-13.267
		c-10.515-9.157-25.109-11.903-38.602-9.525c-0.315,0.055-0.619,0.148-0.932,0.209c1.86-9.045,1.05-18.65-7.2-23.341
		c-10.801-6.141-22.699,4.42-24.503,14.91c-1.282,7.463,0.526,14.975,4.402,21.242c-9.249,7.294-16.841,16.893-22.367,27.388
		c-3.008-9.738-8.937-19.759-19.586-18.049c-12.682,2.035-14.15,17.816-4.654,24.731c5.605,4.082,12.501,4.978,19.379,4.166
		c-0.779,2.094-1.505,4.198-2.116,6.313c-2.604,9.016-3.652,18.4-3.302,27.737c-6.493-0.654-12.906-0.954-19.166-0.509
		c-20.268,1.439-40.678,12.566-49.867,30.357c-0.008,0.002-0.012,0.003-0.02,0.005c-7.131-4.843-13.072-11.403-17.36-18.868
		c-4.951-8.622-7.257-18.33-9.419-27.946c-3.951-17.562-8.591-34.694-22.554-47.054c-7.491-6.632-16.474-11.12-25.972-14.025
		c3.239-9.537,8.2-18.423,15.878-24.939c-0.712,8.973-2.137,18.005,1.535,26.543c4.895,11.381,16.986,22.74,30.269,20.885
		c12.083-1.686,17.939-13.545,18.428-24.645c0.488-11.054-3.535-23.841-12.987-30.371c-10.353-7.153-23.454-5.308-33.714,0.85
		c0.034-10.9-4.01-23.141-16.428-24.751c-11.814-1.532-23.387,7.15-31.844,14.302c-10.479,8.861-20.65,19.457-27.161,31.63
		c-1.436,2.687-2.688,5.48-3.828,8.322c-8.292,1.569-16.409,4.503-22.836,10.134c-4.301,3.768-6.698,8.517-8.332,13.93
		c-0.379,1.253-0.706,2.527-1.008,3.809c-0.123-0.086-0.246-0.171-0.369-0.256c-1.514-9.672-6.122-19.553-14.705-24.191
		c-13.022-7.037-26.475,3.32-32.689,14.559c-1.48,2.677-2.676,5.484-3.667,8.374c-5.605,5.734-10.1,12.942-13.612,19.617
		c-1.534,2.912-2.979,5.961-4.126,9.096c-4.969-1.747-10.162-2.918-15.341-3.815c-7.764-1.345-16.231-2.707-24.015-0.917
		c-2.105-4.173-4.073-8.413-5.767-12.787c-6.417-16.568-7.878-34.147-6.302-51.746c3.161-35.344,16.364-69.056,18.097-104.61
		c0.656-13.457-0.533-26.513-6.963-38.568c-5.625-10.545-14.239-19.116-23.734-26.221c-19.618-14.679-42.897-23.397-65.151-33.159
		c-2.006-0.88-3.757,2.08-1.734,2.967c24.101,10.572,49.955,19.923,70.243,37.227c9.808,8.366,17.962,18.795,21.669,31.291
		c4.76,16.042,2.24,34.226-0.483,50.41c-5.965,35.452-19.406,71.08-15.272,107.511c1.565,13.793,6.19,26.416,12.142,38.634
		c-0.561,0.204-1.118,0.426-1.669,0.671c-10.58,4.701-21.494,12.789-28.326,22.68c-1.814,0.003-3.59,0.162-5.203,0.468
		c-7.407,1.404-14.074,5.652-19.662,10.625c-13.573,12.08-22.511,28.743-24.97,46.746c-2.361,17.282,0.71,35.47,9.687,50.522
		c1.131,1.898,4.103,0.171,2.967-1.735c-17.67-29.628-11.252-69.584,14.22-92.628c5.716-5.171,12.896-9.79,20.763-10.485
		c-0.262,0.463-0.531,0.924-0.775,1.393c-2.291,4.427-3.807,9.757-1.764,14.568c1.813,4.272,6.692,8.268,11.53,7.889
		c10.139-0.793,12.715-16.777,6.352-22.987c-2.34-2.283-5.592-3.533-8.997-4.069c0.415-0.514,0.832-1.017,1.246-1.501
		c4.428-5.17,9.693-9.656,15.377-13.387c3.228-2.12,6.89-4.466,10.707-5.822c1.425,2.814,2.892,5.616,4.425,8.403
		c4.229,7.689,8.591,15.427,12.328,23.412c-1.941,0.508-3.87,1.077-5.78,1.742c-13.438,4.683-25.91,13.577-32.07,26.751
		c-5.201,11.123-5.642,25.096-0.768,36.412c4.571,10.615,15.045,17.995,26.814,14.456c12.686-3.814,21.509-16.915,24.011-29.401
		c3.232-16.126-0.903-32.629-7.281-47.5c7.485-1.604,15.216-2.429,22.791-3.219c3.658-0.382,7.322-0.809,10.96-1.345
		c1.113,11.93,3.855,23.86,10.699,33.683c6.561,9.418,16.157,14.959,25.443,21.01c-8.192,7.834-13.263,19.049-13.648,30.343
		c-0.414,12.141,5.387,24.082,17.351,28.236c10.817,3.757,21.377-1.823,24.826-12.639c4.117-12.913-2.628-27.527-11.396-36.89
		c-3.405-3.637-7.337-6.619-11.442-9.384c0.593-0.444,1.184-0.892,1.8-1.295c16.035-10.497,35.868-7.876,53.714-4.952
		c16.79,2.75,34.255,5.478,50.479-1.285c3.484-1.453,6.786-3.344,9.791-5.597c7.231,10.167,16.783,18.366,29.245,22.859
		c6.57,2.369,13.653,3.267,20.582,2.252c4.294-0.629,8.268-2.102,12.166-3.8c1.994,6.287,5.219,12.158,9.849,16.673
		c7.757,7.562,21.822,10.416,29.266,0.676c8.09-10.586-1.198-25.185-12.756-27.903c-7.02-1.65-14.276,1.375-20.567,4.212
		c-1.172,0.529-2.337,1.059-3.5,1.583c-2.113-9.102-1.364-18.352,2-26.733c14.554,8.425,32.395,10.484,48.025,1.885
		c8.883-4.887,15.998-12.262,21.294-20.926c3.333,15.851,10.697,30.872,21.601,42.902c9.368,10.336,21.355,18.084,35.078,21.021
		c0.651,0.139,1.327,0.278,2.019,0.418c-4.071,10.755-4.7,26.248,5.047,34.042c7.532,6.023,19.431,3.943,24.966-3.797
		c6.621-9.259,1.455-21.351-7.533-26.641c-5.415-3.187-11.412-4.69-17.469-6.034c2.37-4.442,5.447-8.375,8.821-11.204
		c9.096-7.628,20.402-10.583,31.661-13.584c3.859,8.42,9.219,16.169,15.716,22.732c11.892,12.014,27.412,19.862,43.867,22.997
		c3.023,14.639,10.678,28.475,21.772,38.812c24.134,22.487,61.431,23.468,90.654,11.143c26.914-11.351,49.305-35.568,52.742-65.373
		c1.257-10.907-0.354-27.202-11.176-33.154c2.993-6.738,3.723-14.606,1.358-21.098c-4.953-13.599-22.261-20.56-33.884-11.632
		c-1.272-5.276-2.982-11.61-5.646-17.184c2.935-4.552,13.914-25.627,2.506-72.433c-10.809-44.345-10.14-98.476,76.798-163.736
		c43.269-32.48,75.577-39.284,101.537-44.752c27.78-5.85,49.809-10.489,70.147-44.341
		C2043.412,588.848,2043.14,587.761,2042.313,587.277L2042.313,587.277z M1145.339,921.119c0.592,4.176-1.292,11.179-6.211,12.026
		c-5.211,0.897-9.399-5.34-9.174-9.91c0.184-3.729,1.895-7.302,4.052-10.499C1139.215,913.178,1144.539,915.474,1145.339,921.119z
		 M1667.893,874.638c0.703,1.027,1.375,2.076,1.996,3.149c2.198,3.805,4.626,8.771,4.005,13.322
		c-0.372,2.73-4.082,6.797-6.723,3.929c-2.912-3.16-1.424-10.759-0.742-14.412C1666.798,878.642,1667.301,876.629,1667.893,874.638z
		 M1642.82,885.421c-0.415,2.569-1.492,6.075-4.396,6.737c-3.142,0.716-6.751-2.339-8.329-4.805
		c-3.313-5.176-1.45-11.927,1.59-16.752c1.235-1.963,2.797-3.806,4.589-5.391C1641.264,870.402,1644.133,877.313,1642.82,885.421z
		 M1597.951,835.562c8.289,3.579,13.896,9.334,17.241,16.158c-0.382-0.034-0.759-0.088-1.142-0.111
		c-17.209-1.034-37.678,7.941-54.192,1.16c2.039-2.885,3.892-5.898,5.496-9.025c1.493-2.911,2.981-6.559,4.084-10.45
		C1578.68,831.072,1588.406,831.44,1597.951,835.562z M1598.265,910.245c-23.797,16.479-51.845,9.401-79.058,5.643
		c4-11.683,5.281-24.349,3.673-35.964c-0.023-0.168-0.057-0.355-0.083-0.527c3.947-1.072,7.735-2.562,11.093-4.188
		c9.408-4.556,17.54-11.508,23.954-19.771c0.207,0.088,0.404,0.195,0.612,0.279c17.746,7.152,36.022-1.297,54.149-0.733
		c1.384,0.043,2.775,0.205,4.163,0.42C1623.394,874.01,1615.07,898.607,1598.265,910.245z M1556.749,851.276
		c-1.834-1.02-3.61-2.263-5.316-3.781c-1.322-1.175-2.543-2.496-3.641-3.926c5.525-3.992,11.55-7.184,17.854-9.207
		C1563.69,840.396,1560.514,846.124,1556.749,851.276z M1542.025,821.652c1.39-7.388,8.243-14.8,16.386-13.366
		c9.843,1.733,10.037,14.574,8.292,22.25c-7.604,1.979-14.632,5.446-20.97,9.982C1542.389,834.853,1540.824,828.04,1542.025,821.652
		z M1525.69,867.823c4.846-8.197,11.566-16.019,19.448-22.257c2.628,3.358,5.893,6.211,9.613,8.327
		c-0.511,0.638-1.021,1.28-1.547,1.897c-5.716,6.689-12.665,12.304-20.562,16.216c-3.17,1.57-6.741,2.983-10.436,4.014
		c-0.072-0.354-0.149-0.711-0.228-1.072C1523.11,872.533,1524.318,870.145,1525.69,867.823z M1507.044,877.294
		c-7.536-1.246-16.804-7.811-12.794-16.594c1.561-3.417,5.247-5.591,8.966-5.575c4.841,0.021,8.473,3.943,10.776,7.809
		c2.063,3.461,3.544,7.252,4.567,11.218c-0.461,0.997-0.94,1.989-1.364,2.996C1513.757,877.706,1510.308,877.833,1507.044,877.294z
		 M1519.735,880.174c1.582,11.465-0.222,23.812-3.696,34.042c-0.136,0.4-0.291,0.797-0.434,1.196c-0.55-0.069-1.098-0.136-1.648-0.2
		C1513.477,903.33,1515.37,891.393,1519.735,880.174z M1514.36,918.642c-0.063,0.153-0.124,0.307-0.188,0.46
		c-0.014-0.163-0.041-0.326-0.053-0.489C1514.199,918.622,1514.279,918.631,1514.36,918.642z M1420.67,810.108
		c7.971,8.581,10.269,23.207,6.136,34.038c-2.208,5.79-6.813,10.578-13.107,11.667c-7.275,1.258-14.439-2.706-19.458-7.662
		c-5.559-5.487-9.203-12.492-9.715-20.323c-0.402-6.187,0.396-12.357,0.755-18.531
		C1395.998,802.084,1411.038,799.737,1420.67,810.108z M1349.269,789.891c5.292-3.347,11.549-6.54,17.99-6.259
		c6.812,0.297,12.058,5.46,13.796,11.863c1.048,3.865,1.237,7.812,1.102,11.788c-0.164,0.121-0.338,0.233-0.501,0.357
		c-9.277,7.054-15.172,17.259-18.89,28.182c-3.363-0.89-6.773-1.599-10.198-2.123c-13.925-2.134-28.492-1.952-42.457,0.246
		c1.931-4.465,4.255-8.753,6.98-12.764C1325.261,809.149,1336.988,797.657,1349.269,789.891z M1357.495,902.216
		c0.535,5.409,1.36,10.985,2.514,16.57c-5.462,1.763-10.845,2.991-16.877,2.066c-7.128-1.093-13.817-4.458-19.37-8.997
		c-12.804-10.465-19.409-26.37-20.171-42.662c-0.501-10.722,1.276-21.596,5.073-31.685c10.993-2.092,22.716-2.244,33.571-1.511
		c6.533,0.442,13.11,1.416,19.486,3.084c-0.936,3.136-1.714,6.308-2.344,9.466C1355.892,866.052,1355.746,884.501,1357.495,902.216z
		 M1265.278,888.995c-8.09,13.713-22.752,21.493-37.921,24.723c-1.694,0.361-3.397,0.667-5.105,0.95
		c-0.202-2.991-0.321-5.963-0.386-8.875c-0.304-13.772-0.82-29.478,3.683-43.039c3.844-3.951,8.342-7.129,13.526-7.895
		c10.615-1.567,22.38,3.606,31.019,9.323c0.123,0.082,0.266,0.182,0.396,0.27C1271.415,872.893,1269.616,881.644,1265.278,888.995z
		 M1276.268,868.964c4.904,4.471,9.235,10.576,4.603,15.652c-2.829,3.1-4.083,1.447-4.753-1.993
		C1275.26,878.219,1275.601,873.435,1276.268,868.964z M1249.811,839.163c6.524-0.052,11.839,4.19,15.213,9.474
		c2.196,3.44,3.724,7.207,4.652,11.11c-2.467-1.419-4.94-2.637-7.21-3.647c-9.343-4.154-21.491-7.545-31.036-2.169
		c-1.062,0.598-2.077,1.288-3.079,2.003c0.539-1.07,1.114-2.124,1.742-3.152C1234.277,845.931,1241.286,839.232,1249.811,839.163z
		 M1206.852,894.087c0.742,0.349,1.49,0.688,2.198,1.079c1.836,1.015,4.231,2.245,1.994,4.017c-1.669,1.323-4.564,2.826-4.852-0.075
		C1206.034,897.511,1206.35,895.786,1206.852,894.087z M1189.809,950.761c2.029,16.314-2.214,35.487-17.711,44.077
		c-6.507,3.608-14.236,3.646-20.2-1.103c-5.245-4.177-8.015-10.786-9.243-17.218c-2.983-15.626,2.941-31.143,15.209-41.16
		c7.167-5.851,15.401-9.26,24.057-11.44C1185.692,932.474,1188.636,941.34,1189.809,950.761z M1183.899,919.823
		c-5-10.931-11.301-21.22-16.871-31.866c0.116-0.02,0.232-0.055,0.349-0.073c4.221-0.649,8.693-0.261,12.916,0.157
		c7.568,0.75,16.098,1.926,23.527,4.76c-0.171,0.61-0.373,1.213-0.511,1.828c-0.584,2.59-1.281,6.373,0.874,8.472
		c3.822,3.724,13.691-2.088,10.793-7.345c-1.318-2.393-4.275-3.853-6.973-4.918c0.319-0.793,0.643-1.559,0.939-2.27
		c2.116-5.086,4.843-9.946,7.879-14.536c1.084-1.638,2.28-3.387,3.575-5.136c-2.48,11.858-2.206,24.624-1.979,36.267
		c0.065,3.295,0.192,6.656,0.427,10.032C1207.209,916.846,1195.353,917.3,1183.899,919.823z M1266.995,981.856
		c10.719,9.399,20.88,29.552,10.25,42.563c-9.352,11.448-26.532,2.382-30.555-9.241c-4.77-13.784,0.831-30.21,11.496-39.985
		C1261.235,977.255,1264.215,979.419,1266.995,981.856z M1361.34,963.774c-32.809,10.163-69.338-15.407-100.324,4.878
		c-1.073,0.702-2.097,1.473-3.096,2.276c-7.758-4.985-15.839-9.572-22.044-16.521c-8.892-9.961-12.146-23.22-13.357-36.391
		c11.501-1.953,22.622-5.296,32.228-12.472c8.203-6.127,14.651-14.609,17.635-24.285c0.224,2.495,0.792,4.974,2.203,6.794
		c2.219,2.863,5.458,1.933,7.863-0.192c3.162-2.794,4.462-6.772,3.347-10.864c-1.3-4.772-4.67-8.844-8.781-12.23
		c0.848-4.264,2.073-8.56,4.214-12.309c3.657-6.401,11.104-10.384,17.894-12.569c1.843-0.592,3.729-1.1,5.638-1.556
		c-3.571,10.264-5.228,21.242-4.542,32.041c0.921,14.511,6.098,28.519,16.111,39.224c8.648,9.245,21.09,15.895,34.023,14.972
		c3.628-0.259,7.032-1.245,10.397-2.393c2.829,12.233,7.324,24.349,14.025,34.713
		C1370.697,959.955,1366.057,962.312,1361.34,963.774z M1377.433,954.707c-6.649-10.124-10.835-21.79-13.479-33.652
		c2.362-0.84,4.731-1.675,7.173-2.306c4.432-1.144,9.255-1.436,12.921,1.79c2.703,2.378,3.933,5.946,4.243,9.448
		C1389.167,939.865,1384.468,948.446,1377.433,954.707z M1450.51,975.912c8.165-3.127,16.345-3.492,22.666,3.391
		c6.039,6.575,5.786,17.476-3.461,21.021c-13.697,5.251-24.174-9.284-27.789-20.665C1444.761,978.36,1447.59,977.03,1450.51,975.912
		z M1436.316,964.412c-0.103,4.378,0.374,8.928,1.443,13.352c-5.371,2.286-10.812,4.119-16.88,4.128
		c-15.955,0.024-30.343-10.029-39.87-22.173c-0.548-0.699-1.024-1.447-1.544-2.165c6.812-6.037,11.564-14.164,12.263-23.607
		c0.452-6.101-1.131-12.694-6.166-16.589c-5.908-4.572-13.463-2.735-19.914-0.497c-0.818,0.284-1.626,0.566-2.431,0.845
		c-0.443-2.236-0.839-4.474-1.183-6.706c-2.747-17.83-3.026-36.618-0.533-54.496c0.759-5.436,1.869-11.029,3.484-16.479
		c5.736,1.747,11.279,4.075,16.413,7.21c13.409,8.186,21.753,20.997,26.054,35.923c4.684,16.256,6.142,33.628,15.805,48.014
		c4.388,6.535,10.135,12.177,16.676,16.515C1437.752,952.792,1436.458,958.383,1436.316,964.412z M1484.492,950.794
		c-13.29,5.207-28.055,2.854-40.124-4.22c1.842-3.754,4.214-7.303,7.133-10.53c10.875-12.027,26.66-17.845,42.604-18.453
		c5.529-0.21,11.016,0.086,16.482,0.634c0.171,2.291,0.423,4.574,0.762,6.848C1505.396,936.298,1496.355,946.146,1484.492,950.794z
		 M1600.078,1011.862c1.545,6.435-1.089,12.811-7.152,15.697c-5.324,2.534-12.111,1.849-16.162-2.669
		c-7.116-7.935-6.496-19.471-2.244-29.279C1584.878,997.74,1597.463,1000.961,1600.078,1011.862z M1700.048,955.059
		c0.106,3.3,0.685,6.591,1.777,9.739c1.893,5.458,5.752,11.213,11.629,12.844c5.716,1.587,11.762-1.512,15.174-6.057
		c3.682-4.903,4.267-11.495,1.01-16.792c-3.131-5.093-9.144-7.555-14.938-7.718c-3.792-0.106-7.428,0.674-10.849,2.059
		c1.281-7.754,5.543-14.984,12.262-19.463c9.537-6.358,23.021-6.887,31.63,1.394c11.066,10.644,11.078,29.221,6.456,42.792
		c-10.269,30.146-46.288,41.4-75.28,36.613c-2.487-14.517,0.152-29.679,8.162-42.189
		C1690.025,963.682,1694.664,958.638,1700.048,955.059z M1703.441,953.09c6.165-3.162,12.979-4.14,19.234-0.392
		c7.226,4.33,7.284,14.059,0.935,19.214c-7.11,5.775-14.594,0.946-17.797-6.34C1704.065,961.596,1703.307,957.321,1703.441,953.09z
		 M1797.784,936.521c9.665-9.909,25.827-3.941,30.362,8.139c2.068,5.509,1.461,12.703-1.191,18.862
		c-10.053-3.136-20.62,3.866-21.344,14.468c-0.046,0.675,0.562,1.549,1.262,1.657c9.405,1.447,17.093-3.955,21.608-11.641
		c3.729,2.251,6.34,6.338,7.811,10.689c5.065,14.976,0.091,32.47-7.481,45.714c-15.081,26.378-44.918,41.891-74.776,43.298
		c-17.536,0.827-35.58-3.356-49.574-14.348c-12.321-9.678-21.132-23.724-24.755-38.94c-0.034-0.144-0.059-0.291-0.092-0.435
		c8.799,1.309,17.802,1.309,26.616-0.143c15.172-2.5,30.192-9.149,40.576-20.754c10.121-11.313,15.112-27.004,13.354-42.106
		c-1.43-12.266-7.894-24.622-20.369-28.426c-10.188-3.106-21.586,0.174-29.363,7.217c-6.032,5.463-9.544,13.151-10.265,21.127
		c-7.047,3.939-12.933,10.413-16.912,17.041c-7.734,12.883-9.97,27.633-7.804,41.844c-24.05-5.054-45.11-20.791-55.524-43.009
		c4.323-1.177,8.605-2.429,12.717-4.029c14.262-5.548,25.83-15.733,29.541-31.029c2.979-12.281-0.452-27.147-13.095-32.398
		c-10.847-4.505-23.777-0.21-30.796,8.923c-9.281,12.075-10.062,29.07-7.06,43.444c0.912,4.371,2.274,8.638,3.952,12.783
		c-3.34,0.893-6.659,1.783-9.877,2.787c-13.521,4.22-26.484,11.353-32.867,24.427c-5.025-1.112-10.022-2.32-14.692-4.496
		c-13.339-6.217-23.994-17.291-31.406-29.85c-5.79-9.811-9.568-20.542-11.333-31.535c1.108-2.173,2.09-4.413,2.985-6.693
		c11.575,1.569,23.097,3.844,34.751,4.6c16.315,1.059,33.497-0.988,47.256-10.495c11.722-8.099,19.458-21.435,21.884-35.379
		c1.255-7.216,0.958-14.698-1.113-21.58c4.752,1.299,9.265,3.569,12.993,6.641c-7.065,6.38-11.779,16.977-7.015,25.55
		c2.484,4.471,8.793,9.103,14.045,6.522c5.554-2.729,6.117-10.772,5.459-16.079c-0.77-6.208-3.398-11.51-7.206-15.756
		c2.223-1.431,4.675-2.468,7.276-2.85c4.992-0.734,9.74,2.173,13.409,5.262c2.026,1.705,3.893,3.61,5.585,5.659
		c-2.185,5.558-3.193,11.642-3.06,17.475c0.083,3.607,0.696,8.68,4.527,10.265c3.362,1.39,7.598-0.78,9.332-3.751
		c4.337-7.429-1.692-17.872-6.831-24.496c0.743-1.807,1.575-3.568,2.633-5.173c4.591-6.963,12.869-10.873,20.613-13.154
		c16.772-4.94,36.228-7.862,53.573-4.743c16.714,3.006,30.466,12.68,38.528,27.673c5.494,10.219,8.297,23.844,5.008,35.465
		c-3.785-5.973-9.096-10.213-16.813-9.685c-14.105,0.967-19.276,18.518-7.904,27.056c5.591,4.197,12.477,3.75,17.931-0.455
		c3.006-2.318,5.32-5.376,7.08-8.759c2.44,5.924,3.936,12.405,4.976,16.844C1795.207,937.025,1796.904,937.424,1797.784,936.521z
		 M1825.367,966.648c-3.494,5.953-9.085,10.266-16.076,9.844c1.085-5.804,5.945-9.93,11.986-10.267
		C1822.737,966.143,1824.1,966.299,1825.367,966.648z M1616.671,958.716c-4.93-14.964-5.779-33.623,3.458-47.174
		c7.032-10.316,22.974-14.761,32.889-5.753c12.052,10.948,6.624,31.377-3.059,41.927c-8.325,9.07-19.888,12.719-31.481,15.864
		C1617.823,961.987,1617.216,960.367,1616.671,958.716z M1788.111,914.987c-1.104,2.504-2.514,4.883-4.33,7.047
		c-5.466,6.512-14.661,7.975-19.818,0.158c-4.276-6.486-1.274-14.923,6.115-17.152
		C1778.675,902.447,1784.306,907.727,1788.111,914.987z" class="colorC983AE svgShape"></path><path fill="#706fe3" d="M1917.636,1143.08c0,140.359-60.797,265.908-156.455,349.724c-36.562,32.036-53.659,80.884-45.707,128.841
		c11.337,68.367,31.283,163.166,62.533,229.096h-441.147c25.257-41.085,9.429-164.234-16.568-188.733
		c-50.444-52.594-288.511,100.43-267.642-87.563c1.251-16.585-6.327-22.331-14.999-26.755
		c-47.624-16.233,5.323-41.896-18.242-66.818c-6.539-6.274-13.078-14.1-14.929-21.661c-3.895-27.425,22.455-59.627,6.257-85.166
		c-10.787-13.131-56.683-10.928-64.915-30.915c-9.412-39.41,82.699-102.703,86.33-213.127
		c2.062-63.011,13.254-116.927,30.598-163.123c276.353,32.749,550.692,35.857,822.385,0
		C1907.202,1020.76,1919.046,1080.175,1917.636,1143.08z" class="color706FE3 svgShape"></path><path fill="#5c5bd4" d="M1885.135,966.878c-73.348,9.681-146.89,16.496-220.611,20.68
			c16.981,48.268,25.869,100.563,24.637,155.521c0,140.359-60.797,265.908-156.454,349.725
			c-36.562,32.036-53.659,80.883-45.707,128.841c11.336,68.367-1.13,175.701-150.138,229.096h441.147
			c-31.25-65.93-51.197-160.729-62.533-229.096c-7.952-47.957,9.146-96.804,45.707-128.841
			c95.657-83.817,156.455-209.366,156.455-349.725C1919.046,1080.175,1907.202,1020.76,1885.135,966.878z" class="color5C5BD4 svgShape"></path><path fill="#4b4ac9" d="M1885.135,966.878c-27.366,3.612-54.76,6.809-82.179,9.64c21.729,53.538,33.387,112.5,31.988,174.903
			c0,140.359-60.798,265.908-156.455,349.725c-36.562,32.036-53.659,80.883-45.707,128.84
			c10.868,65.54,0.639,163.621-58.144,220.755h203.37c-31.25-65.93-51.197-160.729-62.533-229.096
			c-7.952-47.957,9.146-96.804,45.707-128.841c95.657-83.817,156.455-209.366,156.455-349.725
			C1919.046,1080.175,1907.202,1020.76,1885.135,966.878z" class="color4B4AC9 svgShape"></path><path fill="#ffdeeb" d="M1173.537,634.125c-4.49,25.706-24.928,29.028-46.028,8.683c-40.643-39.201-113.408-141.291-146.17-125.643
		c-43.095,20.597-16.68,166.584,33.427,160.375c42.981-5.315,64.242-15.419,99.296-26.072c25.453-7.721,40.46,9.829,32.578,15.533
		c-22.956,16.656-115.929,54.78-136.571,58.881c-30.518,6.048-108.116-41.766-108.116-41.766s68.343,60.484,97.966,58.491
		c14.686-0.985,70.772-10.447,85.161-12.99c36.175-6.438,47.219,22.842,0.595,37.803c-18.672,5.98-86.855,27.768-110.407,23.163
		c-30.311-5.934-107.131-51.549-107.131-51.549s52.673,57.185,70.359,64.311c12.784,5.155,83.305,4.926,92.354,3.367
		c33.611-5.819,60.508,16.358-9.645,34.733c-15.694,4.124-89.123,4.536-112.515-0.664c-7.262-1.627-42.636-28.707-71.046-57.827
		l26.003,59.476c0,0,44.837,31.067,57.369,41.835c12.555,10.745,19.818,24.996,9.737,34.251
		c-10.196,9.371-82.799-27.974-102.961-46.806c-41.697-59.179-77.402-153.119-101.014-210.39
		c-28.088-68.13,55.26-218.477,21.719-325.447C723.981,257.701,638.18,86.534,593.757,0h254.699
		c14.068,72.65,40.964,184.225,81.654,243.015c41.422,59.866,116.524,138.725,143.33,206.426
		C1089.34,489.626,1181.052,591.098,1173.537,634.125z" class="colorFFDEEB svgShape"></path><path fill="#f0c7d7" d="M926.542 803.344c8.69 3.504 44.042 4.518 68.645 4.321-22.876-.174-49.336-1.355-56.692-4.321-11.865-4.78-39.456-32.072-56.346-49.531-15.134-8.348-25.966-14.78-25.966-14.78S908.855 796.219 926.542 803.344zM981.338 517.165c.613-.293 1.245-.532 1.886-.744-5.133-1.32-9.792-1.19-13.839.744-43.095 20.597-16.68 166.584 33.427 160.375 1.15-.142 2.226-.301 3.346-.45C961.788 666.946 940.785 536.547 981.338 517.165zM987.966 742.607c1.379-.093 3.126-.26 5.166-.489-18.667-3.335-46.417-22.369-66.41-37.752C906.214 694.1 890 684.116 890 684.116S958.343 744.601 987.966 742.607zM921.014 884.265c-12.531-10.768-57.369-41.835-57.369-41.835l-17.363-39.714c-6.947-6.279-13.959-12.962-20.593-19.762l26.003 59.476c0 0 44.837 31.067 57.369 41.835 12.555 10.745 19.818 24.996 9.737 34.251-.219.201-.504.352-.779.511 6.122 1.345 10.691 1.365 12.733-.511C940.832 909.261 933.569 895.01 921.014 884.265zM1144.786 655.737c-6.104 1.098-4.363 7.112-10.1 11.264-22.956 16.656-115.929 54.78-136.571 58.881-.138.027-.292.034-.431.059 4.627.594 8.834.644 12.384-.059 20.642-4.101 113.615-42.225 136.571-58.881C1150.112 664.488 1149.136 659.675 1144.786 655.737zM1073.44 449.441c-26.806-67.701-101.908-146.56-143.33-206.426C889.42 184.225 862.523 72.65 848.456 0h-48.461c14.068 72.65 68.684 188.05 109.374 246.839 41.422 59.866 125.312 134.901 152.118 202.602 15.9 40.186 107.611 141.658 100.097 184.684-2.028 11.608-7.314 18.635-14.439 20.996 12.956 3.568 23.346-3.556 26.392-20.996C1181.052 591.098 1089.34 489.626 1073.44 449.441zM1035.541 806.073c23.428 2.521 31.498 20.235-26.291 35.372-7.073 1.859-25.879 2.96-46.54 3.137 25.021.219 50.07-.924 58.493-3.137C1088.054 823.935 1066.776 802.973 1035.541 806.073zM1088.576 729.099c22.776 3.202 24.215 25.783-14.855 38.32-15.696 5.027-66.367 21.218-96.115 23.519 25.43 2.901 89.98-17.727 108.068-23.519C1130.758 752.953 1121.917 725.103 1088.576 729.099z" class="colorF0C7D7 svgShape"></path><path fill="#ffdeeb" d="M1877.004,634.125c4.49,25.706,24.928,29.028,46.028,8.683c40.643-39.201,113.408-141.291,146.17-125.643
		c43.096,20.597,16.68,166.584-33.426,160.375c-42.981-5.315-64.242-15.419-99.296-26.072c-25.453-7.721-40.459,9.829-32.578,15.533
		c22.957,16.656,115.929,54.78,136.571,58.881c30.518,6.048,108.116-41.766,108.116-41.766s-68.343,60.484-97.966,58.491
		c-14.686-0.985-70.772-10.447-85.16-12.99c-36.175-6.438-47.219,22.842-0.595,37.803c18.672,5.98,86.855,27.768,110.407,23.163
		c30.311-5.934,107.132-51.549,107.132-51.549s-52.673,57.185-70.359,64.311c-12.784,5.155-83.304,4.926-92.354,3.367
		c-33.611-5.819-60.508,16.358,9.646,34.733c15.694,4.124,89.123,4.536,112.515-0.664c7.262-1.627,42.636-28.707,71.046-57.827
		l-26.003,59.476c0,0-44.837,31.067-57.369,41.835c-12.555,10.745-19.817,24.996-9.737,34.251
		c10.196,9.371,82.799-27.974,102.961-46.806c41.697-59.179,77.402-153.119,101.013-210.39
		c28.088-68.13-55.26-218.477-21.719-325.447C2326.56,257.701,2412.361,86.534,2456.784,0h-254.699
		c-14.067,72.65-40.964,184.225-81.654,243.015c-41.422,59.866-116.524,138.725-143.33,206.426
		C1961.201,489.626,1869.49,591.098,1877.004,634.125z" class="colorFFDEEB svgShape"></path><path fill="#f0c7d7" d="M2123.999 803.344c-8.69 3.504-44.042 4.518-68.645 4.321 22.876-.174 49.336-1.355 56.692-4.321 11.865-4.78 39.456-32.072 56.346-49.531 15.134-8.348 25.966-14.78 25.966-14.78S2141.686 796.219 2123.999 803.344zM2069.202 517.165c-.613-.293-1.245-.532-1.886-.744 5.133-1.32 9.792-1.19 13.84.744 43.095 20.597 16.679 166.584-33.427 160.375-1.15-.142-2.226-.301-3.346-.45C2088.753 666.946 2109.756 536.547 2069.202 517.165zM2062.575 742.607c-1.379-.093-3.125-.26-5.166-.489 18.667-3.335 46.417-22.369 66.41-37.752 20.508-10.266 36.722-20.25 36.722-20.25S2092.198 744.601 2062.575 742.607zM2129.527 884.265c12.532-10.768 57.369-41.835 57.369-41.835l17.363-39.714c6.947-6.279 13.959-12.962 20.593-19.762l-26.003 59.476c0 0-44.837 31.067-57.368 41.835-12.555 10.745-19.818 24.996-9.737 34.251.219.201.504.352.78.511-6.122 1.345-10.691 1.365-12.733-.511C2109.709 909.261 2116.972 895.01 2129.527 884.265zM1905.755 655.737c6.105 1.098 4.363 7.112 10.099 11.264 22.957 16.656 115.929 54.78 136.571 58.881.138.027.292.034.431.059-4.627.594-8.834.644-12.384-.059-20.642-4.101-113.614-42.225-136.571-58.881C1900.429 664.488 1901.404 659.675 1905.755 655.737zM1977.101 449.441c26.806-67.701 101.908-146.56 143.33-206.426 40.69-58.79 67.587-170.365 81.654-243.015h48.461c-14.068 72.65-68.684 188.05-109.374 246.839-41.422 59.866-125.312 134.901-152.118 202.602-15.9 40.186-107.611 141.658-100.097 184.684 2.028 11.608 7.314 18.635 14.439 20.996-12.956 3.568-23.346-3.556-26.392-20.996C1869.49 591.098 1961.201 489.626 1977.101 449.441zM2015 806.073c-23.428 2.521-31.498 20.235 26.292 35.372 7.073 1.859 25.879 2.96 46.54 3.137-25.021.219-50.07-.924-58.493-3.137C1962.487 823.935 1983.765 802.973 2015 806.073zM1961.965 729.099c-22.777 3.202-24.215 25.783 14.855 38.32 15.696 5.027 66.368 21.218 96.115 23.519-25.43 2.901-89.979-17.727-108.068-23.519C1919.783 752.953 1928.624 725.103 1961.965 729.099z" class="colorF0C7D7 svgShape"></path><path fill="#706fe3" d="M2226.069 1895.87H555.441c-6.752 0-12.225-4.354-12.225-9.725l0 0c0-5.371 5.474-9.725 12.225-9.725h1670.628c6.752 0 12.225 4.354 12.225 9.725l0 0C2238.294 1891.516 2232.821 1895.87 2226.069 1895.87zM1879.08 1954.151h-532.351c-5.371 0-9.725-4.354-9.725-9.725l0 0c0-5.371 4.354-9.725 9.725-9.725h532.351c5.371 0 9.725 4.354 9.725 9.725l0 0C1888.805 1949.796 1884.451 1954.151 1879.08 1954.151zM1294.556 1956h-82.901c-5.371 0-9.725-4.354-9.725-9.725l0 0c0-5.371 4.354-9.725 9.725-9.725h82.901c5.371 0 9.725 4.354 9.725 9.725l0 0C1304.281 1951.646 1299.927 1956 1294.556 1956zM2114.563 1956h-82.901c-5.371 0-9.725-4.354-9.725-9.725l0 0c0-5.371 4.354-9.725 9.725-9.725h82.901c5.371 0 9.725 4.354 9.725 9.725l0 0C2124.288 1951.646 2119.934 1956 2114.563 1956zM1141.381 1956H836.018c-5.371 0-9.725-4.354-9.725-9.725l0 0c0-5.371 4.354-9.725 9.725-9.725h305.364c5.371 0 9.725 4.354 9.725 9.725l0 0C1151.107 1951.646 1146.752 1956 1141.381 1956z" class="color706FE3 svgShape"></path><circle cx="881.173" cy="1722.399" r="17.494" fill="#cbd6f5" class="colorCBD6F5 svgShape"></circle><path fill="#cbd6f5" d="M2035.363,1783.064c0-9.661,7.832-17.493,17.493-17.493c9.661,0,17.493,7.832,17.493,17.493
		c0,9.662-7.832,17.494-17.493,17.494C2043.195,1800.558,2035.363,1792.726,2035.363,1783.064z" class="colorCBD6F5 svgShape"></path><circle cx="2079.521" cy="1099.718" r="17.493" fill="#cbd6f5" class="colorCBD6F5 svgShape"></circle><circle cx="697.333" cy="1328.743" r="17.493" fill="#cbd6f5" transform="rotate(-45.001 697.32 1328.757)" class="colorCBD6F5 svgShape"></circle><circle cx="2151.108" cy="1448.204" r="17.493" fill="#cbd6f5" transform="rotate(-76.714 2151.31 1448.248)" class="colorCBD6F5 svgShape"></circle><path fill="#cbd6f5" d="M697.333 1641.108c0-6.437 5.218-11.655 11.655-11.655 6.437 0 11.655 5.218 11.655 11.655 0 6.437-5.218 11.655-11.655 11.655C702.551 1652.762 697.333 1647.545 697.333 1641.108zM2178.975 1659.404c0-6.437 5.218-11.655 11.654-11.655 6.437 0 11.655 5.218 11.655 11.655 0 6.437-5.218 11.654-11.655 11.654C2184.193 1671.058 2178.975 1665.84 2178.975 1659.404zM1965.673 975.193c0-6.437 5.218-11.655 11.654-11.655 6.437 0 11.655 5.218 11.655 11.655s-5.218 11.655-11.655 11.655C1970.891 986.847 1965.673 981.629 1965.673 975.193zM2169.947 1254.34c0-6.437 5.218-11.655 11.654-11.655 6.437 0 11.655 5.218 11.655 11.655 0 6.437-5.218 11.654-11.655 11.654C2175.165 1265.995 2169.947 1260.777 2169.947 1254.34zM607.544 1154.704c0-6.437 5.218-11.655 11.655-11.655 6.437 0 11.655 5.218 11.655 11.655 0 6.437-5.218 11.655-11.655 11.655C612.762 1166.358 607.544 1161.14 607.544 1154.704zM965.282 997.433c0-6.437 5.218-11.654 11.655-11.654s11.655 5.218 11.655 11.654c0 6.437-5.218 11.655-11.655 11.655S965.282 1003.87 965.282 997.433z" class="colorCBD6F5 svgShape"></path></svg></g></svg>