<svg id="SvgjsSvg1001" width="550" height="550" xmlns="http://www.w3.org/2000/svg" version="1.1" xmlns:xlink="http://www.w3.org/1999/xlink" xmlns:svgjs="http://svgjs.com/svgjs"><defs id="SvgjsDefs1002"></defs><g id="SvgjsG1008"><svg xmlns="http://www.w3.org/2000/svg" fill-rule="evenodd" stroke-linejoin="round" stroke-miterlimit="2" clip-rule="evenodd" viewBox="0 0 3000 3000" width="550" height="550"><path fill="none" d="M0 0h3000v3000H0z"></path><path fill="#a78054" d="M462.975 1926.35c-29.758 139.123 7.455 282.481 158.97 433.068l27.409-18.914c-127.726-130.744-168.656-269.655-150.2-414.154h-36.179ZM1011.48 2054.22l42.521 9.969-246.612 368.901-39.607-11.509c64.072-120.389 172.034-266.256 243.698-367.361Z" class="colora78054 svgShape"></path><path fill="#71cad2" d="M623.866 2467.47c-59.058 3.924-202.415-132.66-169.524-192.84 21.303-38.98 184.762 49.214 184.762 77.458-36.736-22.635 10.602-186.948 95.239-176.437 35.637 4.425 69.564 20.59 76.487 65.03 11.343 72.808-33.63 186.446-33.63 186.446.96-43.098 142.594-65.064 171.43-18.558 22.329 36.012-89.332 94.031-105.715 75.038l-206.668-8.876-12.381-7.261Z" class="color71cad2 svgShape"></path><path d="m839.481 2446.51-87.881 27.722-49.146-29.797c-1.481-.897-3.54-.608-4.599.646-1.059 1.254-.718 2.998.762 3.896l50.572 30.661c.891.54 2.041.67 3.068.346l89.525-28.24c1.705-.539 2.573-2.146 1.938-3.592-.635-1.445-2.533-2.18-4.239-1.642Zm-276.916-92.717 139.3 81.6c1.497.877 3.55.56 4.585-.709 1.035-1.268.661-3.008-.836-3.885l-139.3-81.599c-1.497-.877-3.55-.56-4.585.708-1.036 1.269-.661 3.008.836 3.885Zm153.052-116.574-8.778 161.114c-.107 1.972 1.693 3.644 4.02 3.735 2.328.091 4.302-1.434 4.409-3.405l8.777-161.115c.108-1.971-1.692-3.644-4.02-3.735-2.327-.091-4.301 1.434-4.408 3.406Z" fill="#000000" class="color000 svgShape"></path><path fill="#ff7817" d="M939.787 1993.86c-7.627-2.794-14.695-5.877-20.85-9.276-98.671-54.478 76.669-163.003 161.868-24.79l.696-.448c59.122-37.819 115.834-11.3 135.088 22.932 16.403 29.163 5.62 63.924-54.023 69.27 26.44 13.313 42.463 36.122 38.873 60.013-5.129 34.125-48.345 57.619-96.446 52.43-48.102-5.188-82.991-37.106-77.862-71.232a44.75 44.75 0 0 1 .316-1.841c-18.502 7.965-42.149 12.901-67.972 13.233-59.916.77-109.006-23.53-109.556-54.232-.495-27.613 38.443-51.061 89.868-56.059Zm126.849 4.44c-5.972 7.857-13.612 12.91-22.99 15.037 14.446 9.236 23.162 20.953 23.392 33.79.005.304.006.607.001.914 10.922-4.645 23.442-7.542 36.755-8.256-22.765-13.696-34.524-27.533-37.158-41.485ZM448.946 1863.78a80.803 80.803 0 0 1-4.355-26.2c0-48.993 44.008-88.77 98.215-88.77 54.206 0 98.214 39.777 98.214 88.77 0 25.835-12.236 49.107-31.751 65.335 28.018 12.338 48.952 36.893 53.219 66.825 6.641 46.585-29.593 88.666-80.864 93.912-51.271 5.246-98.288-28.317-104.929-74.902-2.175-15.257.248-30.031 6.293-43.185-23.49 14.084-66.416 18.285-111.944 8.813-62.979-13.103-107.24-47.441-98.778-76.633 8.462-29.192 66.463-42.254 129.442-29.151 17.42 3.625 33.408 8.874 47.238 15.186Zm52.576 54.359.337.141.543.224.429.174c-.468.425-.93.854-1.387 1.287.047-.607.073-1.216.078-1.826Z" class="colorf9b11f svgShape"></path><ellipse cx="1080.07" cy="2028.56" fill="white" rx="43.356" ry="35.631" class="colorf08d32 svgShape"></ellipse><ellipse cx="510.607" cy="1906.5" fill="white" rx="43.356" ry="35.631" class="colorf08d32 svgShape"></ellipse><path fill="#ff7817" d="M1028.67 481.014c246.899-350.763 655.917-347.945 817.147-154.917 202.858 242.865 250.038 969.041-217.144 1495.92-1252.79-460.599-1205.77-581.05-1308.58-803.635-145.715-315.483 215.611-631.723 708.575-537.37Z" class="colorf08d32 svgShape"></path><path d="M880.024 979.144c55.15-68.075 138.873-96.459 248.363-89.2 4.195.278 7.862-2.378 8.19-5.932.328-3.554-2.806-6.661-7.001-6.939-115.67-7.668-203.853 22.849-262.116 94.765-2.381 2.939-1.499 6.957 1.97 8.975 3.47 2.017 8.212 1.27 10.594-1.669ZM1559.89 815.845c36.848-76.437 111.557-119.223 220.372-131.81 4.169-.482 7.087-3.736 6.518-7.268-.569-3.533-4.41-6.005-8.58-5.523-114.957 13.297-193.49 58.969-232.417 139.72-1.591 3.301.277 7.069 4.173 8.417 3.895 1.347 8.343-.235 9.934-3.536Z" fill="#000000" class="color000 svgShape"></path><path fill="#ff7817" d="M2357.46 2237.33c-6.427 3.997-384.942 17.868-384.942 17.868v273.289l388.12 6.145c19.296 70.486 43.786 133.562 63.919 163.168 49.17 72.305 217.587 153.605 263.764 26.064 28.683-79.221-48.345-457.102-108.608-489.544-22.195-11.949-208.281-5.682-222.253 3.01Z" class="colorf08d32 svgShape"></path><path fill="#ff7817" d="M2277.59 2527.11c-42.29 35.458-75.273 70.031-87.069 94.852-35.92 75.583 57.892 232.1 146.6 205.426 45.534-13.692 353.245-323.631 385.647-365.47 7.923-10.231-1.172-42.539-28.671-51.901l-441.351-212.876-191.187 222.428 216.031 107.541Z" class="colorf08d32 svgShape"></path><path d="m2059.89 2421.97 212.345 105.706c-41.222 34.894-73.149 68.779-84.772 93.236-8.818 18.556-10.069 41.876-5.506 66.235 6.775 36.167 26.331 74.635 52.292 102.929 29.473 32.122 67.263 50.976 103.975 39.937 9.291-2.794 29.412-17.545 55.714-39.911 103.26-87.809 305.63-293.144 331.586-326.66 3.518-4.543 4.324-12.993 1.698-22.181-3.756-13.14-14.279-27.758-31.691-33.772l-441.155-212.782c-1.582-.763-3.594-.295-4.495 1.045-.9 1.34-.348 3.045 1.234 3.808l441.351 212.877c.13.062.264.117.402.164 15.465 5.265 24.621 18.339 27.947 29.974 2.105 7.365 2.018 14.162-.803 17.804-25.887 33.427-227.755 238.203-330.744 325.781-25.26 21.481-44.326 35.907-53.249 38.59-34.256 10.3-69.064-8.128-96.566-38.101-25.316-27.592-44.379-65.108-50.986-100.377-4.358-23.267-3.312-45.55 5.111-63.274 11.685-24.588 44.438-58.785 86.33-93.911.728-.609 1.079-1.471.952-2.331-.127-.86-.718-1.622-1.6-2.061l-216.031-107.54c-1.569-.781-3.589-.337-4.511.993-.922 1.329-.398 3.041 1.172 3.822Z" fill="#000000" class="color000 svgShape"></path><path fill="#2b296a" d="M2573.49 1939.63c140.359-164.749-73.265-400.003-270.729-292.098-295.823 161.653-912.437 411.707-966.012 604.077-46.487 166.918 143.778 230.461 238.396 206.593 206.124-51.997 885.108-385.657 998.345-518.572Z" class="color2b296a svgShape"></path><path fill="#2b296a" d="M2616.21 1771.68c142.109-415.589-1142.03-31.898-1220.88 250.352-46.65 166.998 112.892 291.091 221.156 268.89 203.479-41.725 945.306-387.64 999.721-519.242Z" class="color2b296a svgShape"></path><path fill="#2b296a" d="M1998.13 2537c15.021-62.47 29.231-277.808-41.173-357.882 0 0-304.945 20.04-398.088 25.58-271.693 16.161-292.71 202.936-53.09 255.784 158.675 34.996 383.214 81.012 492.351 76.518Z" class="color2b296a svgShape"></path><path fill="#2b296a" d="M1920.43 2445.76c111.846 88.098 401.389-208.103 339.797-308.433 0 0-472.917-73.954-603.131-114.547-283.842-88.484-340.033 147.969-149.387 246.774 132.661 68.754 263.412 121.024 412.721 176.206Z" class="color2b296a svgShape"></path><path d="M1405.28 2172.86c3.749 8.331 27.255 33.88 54.339 58.764 26.975 24.785 57.492 48.88 75.156 54.979 122.879 61.652 245.392 110.347 383.838 161.522 18.582 14.433 41.801 18.854 67.49 15.539 37.742-4.871 80.981-26.659 122.181-57.43 61.357-45.826 118.284-111.514 145.991-169.806 18.791-39.533 24.016-75.749 8.886-100.396-.468-.763-1.326-1.301-2.325-1.457 0 0-72.494-11.337-168.498-27.564 172.498-81.843 345.215-175.544 444.45-249.883 43.672-32.716 73.145-61.818 82.536-84.53.602-1.455-.303-3.048-2.021-3.558-1.718-.51-3.599.257-4.2 1.712-9.151 22.131-38.125 50.312-80.681 82.192-100.469 75.264-276.478 170.392-451.096 252.883-1.205.57-1.864 1.716-1.651 2.872.214 1.155 1.256 2.076 2.61 2.305 91.912 15.59 164.208 26.998 175.745 28.81 11.188 19.433 9.115 46.089-1.887 75.73-17.195 46.325-56.358 99.768-103.237 144.807-46.754 44.918-101.168 81.516-149.24 94.12-31.104 8.155-59.477 6.177-80.982-10.762a3.382 3.382 0 0 0-.926-.515c-138.472-51.176-260.97-99.842-383.843-161.505a3.695 3.695 0 0 0-.457-.191c-17.114-5.79-46.685-29.488-72.993-53.66-26.322-24.184-49.382-48.871-53.025-56.967-.649-1.441-2.553-2.164-4.254-1.614-1.701.549-2.554 2.162-1.906 3.603Z" fill="#000000" class="color000 svgShape"></path><path fill="#f9b11f" d="M2352.24 884.165c-93.808-49.928-278.266-5.347-307.919 40.944-86.194 266.21-140.109 512.914-150.11 759.759 0 29.532 732.04-4.357 732.04-33.889-64.791-273.596-179.109-716.304-274.011-766.814Z" class="colorf9b11f svgShape"></path><path fill="#f579bf" d="M2284.94 1061.45c41.725-57.544 110.62-242.566-127.565-172.786-89.193 26.13-323.917 133.528-392.621 218.792-166.666 206.837 38.605 432.6 204.475 289.637 103.887-89.54 258.839-257.207 315.711-335.643Z" class="colorf579bf svgShape"></path><path fill="#f9b11f" d="m1962.51 967.699 106.667 80.686 100.001-41.15-54.286 74.263 80 106.474c325.216-292.573 96.056-450.984-232.382-220.273" class="colorf9b11f svgShape"></path><path d="m2177.96 1170.64 14.152 18.834c.546.727 1.457 1.2 2.47 1.281 1.012.081 2.012-.238 2.71-.866 90.435-81.357 138.157-152.456 153.037-207.772 10.106-37.566 5.117-67.993-11.689-89.681-.999-1.29-3.042-1.649-4.564-.802-1.521.846-1.945 2.577-.946 3.866 15.992 20.639 20.389 49.627 10.772 85.376-14.542 54.061-61.028 123.275-148.509 202.566l-11.872-15.801c-.977-1.301-3.015-1.684-4.55-.856-1.536.828-1.988 2.554-1.011 3.855Z" fill="#000000" class="color000 svgShape"></path><path fill="#f579bf" d="M2174.16 517.566c100.184 17.381 161.569 114.029 136.996 215.692-24.574 101.662-125.861 170.087-226.044 152.706-100.184-17.381-161.57-114.029-136.996-215.691 24.574-101.662 125.861-170.088 226.044-152.707Z" class="colorf579bf svgShape"></path><path fill="#2b296a" d="M1975.22 725.107c-61.854-134.179-56.454-242.686 87.443-227.535 79.404-95.51 252.372-86.606 345.716 42.36 55.557 76.758 23.096 270.419 214.287 384.873 39.173 23.45-104.286 83.998-104.286 83.998 82.936 105.877 118.712 192.516-4.286 214.389-199.886 5.855-264.132-144.17-292.382-364.507 43.259-36.885 62.001-105.629 67.164-161.879-118.978-18.19-193.902-68.613-229.07-148.124-54.903 37.985-87.068 90.417-81.015 167.134" class="color2b296a svgShape"></path><path fill="#170906" d="m2092.18 660.707-53.995 86.449c-.716 1.147-.438 2.558.68 3.446l15.707 12.475c1.369 1.087 3.519 1.029 4.802-.131 1.284-1.16 1.214-2.981-.155-4.069l-13.814-10.972 52.78-84.505c.878-1.405.245-3.147-1.414-3.891-1.658-.743-3.714-.207-4.591 1.198Zm47.392 42.817c10.926-9.337 25.798-10.513 47.381 1.093 1.32.71 3.07.379 3.908-.739.838-1.119.447-2.601-.873-3.311-24.79-13.33-41.888-11.144-54.437-.421-1.101.941-1.093 2.46.017 3.392 1.111.933 2.903.926 4.004-.014Zm-134.398-31.9c13.813-5.992 28.378-3.19 44.628 13.529.994 1.023 2.778 1.169 3.985.327 1.207-.842 1.38-2.353.386-3.376-18.664-19.203-35.716-21.632-51.58-14.749-1.392.603-1.942 2.049-1.23 3.228.713 1.179 2.419 1.645 3.811 1.041Z" class="color170906 svgShape"></path><path fill="#f2e8e6" d="M2027.93 784.265s128.373-15.674 135.081-8.317c6.709 7.357-72.317 51.071-94.83 52.458-21.889 1.347-40.251-44.141-40.251-44.141Z" class="colorf2e8e6 svgShape"></path><path fill="#f579bf" d="M1123.09 1188.03c1.271-2.573-39.033 6.725-38.29-30.429.275-13.727 101.083-76.064 139.463-75.67 50.777.521 80.314 31.824 89.808 37.889 0 0 442.423-53.126 542.522-13.078 214.644 85.877 214.618 311.372 0 337.711-93.819 11.514-398.68-29.062-550.145-20.823-105.577 5.742-298.688 38.898-227.671-34.843-92.129-2.071-86.348-34.412-77.412-45.042-36.071-7.884-70.541-45.101 14.667-64.999-114.821-15.893 76.448-93.814 107.058-90.716Z" class="colorf579bf svgShape"></path><path fill="#71cad2" d="M1530.65 1869.32c77.708-55.541 169.602-103.069 282.42-138.78 74.084 11.908 137.029 42.689 185.715 97.63l-220.001 150.883c-54.781-53.479-140.019-88.528-248.134-109.733Z" class="color71cad2 svgShape"></path><path d="M1096.64 1392.33s48.601 4.378 125.328-12.956c1.759-.397 2.804-1.927 2.335-3.417-.469-1.49-2.275-2.376-4.033-1.979-75.273 17.006-122.939 12.799-122.939 12.799-1.811-.162-3.433.951-3.623 2.484-.191 1.534 1.122 2.908 2.932 3.069Zm-85.065-48.634s91.734 2.872 171.578-15.838c1.754-.412 2.783-1.95 2.298-3.436-.485-1.486-2.301-2.358-4.055-1.947-78.912 18.492-169.577 15.64-169.577 15.64-1.819-.057-3.349 1.146-3.416 2.687-.067 1.541 1.353 2.837 3.172 2.894Zm18.844-60.651s108.333-4.025 177.815-16.088c1.783-.309 2.933-1.785 2.567-3.296-.365-1.511-2.107-2.484-3.89-2.175-69.078 11.993-176.781 15.98-176.781 15.98-1.818.068-3.228 1.371-3.148 2.912.079 1.541 1.618 2.735 3.437 2.667Zm107.403-92.479s80.126-27.085 140.177-18.606c1.796.254 3.494-.774 3.793-2.295.299-1.521-.914-2.96-2.709-3.213-61.549-8.691-143.698 18.925-143.698 18.925-1.691.57-2.517 2.193-1.844 3.626.673 1.433 2.59 2.133 4.281 1.563Z" fill="#000000" class="color000 svgShape"></path><path fill="#f9b11f" d="M1141.2 1491.49c25.163-92.133 168.791-157.518 132.59-64.58 95.971-73.054 141.655-91.332 104.286-19.144 94.227-33.182 107.203-20.474 52.858 30.257 53.018-14.612 37.569 43.991-24.841 51.575 57.531 1.736 20.844 23.487-27.889 44.867-50.403 22.113-190.389 36.268-184.23 19.5-349.404 150.02-539.876 153.752-407.738-139.449h108.96c-66.02 208.691 58.088 182.284 246.004 76.974Z" class="colorf9b11f svgShape"></path><path d="M769.603 1463.44c5.314-14.468 11.608-29.836 18.909-46.131h102.403c-15.123 48.785-19.657 84.58-15.404 109.4 3.021 17.627 10.481 29.881 21.556 37.548 16.481 11.41 41.31 12.771 72.736 5.702 45.465-10.229 105.199-38.021 173.219-76.14.704-.395 1.203-1.003 1.393-1.7 8.904-32.603 32.928-61.783 58.335-81.537 16.75-13.023 34.074-21.959 48.056-24.914 8.327-1.76 15.35-1.444 19.926 1.963 3.396 2.529 5.273 6.683 5.548 12.544.308 6.572-1.43 15.114-5.616 25.86-.468 1.201.077 2.52 1.327 3.212 1.251.692 2.895.586 4.006-.26 38.132-29.027 68.251-49.372 88.316-58.718 5.716-2.663 10.558-4.414 14.499-5.143 2.989-.552 5.312-.593 6.873.41 1.955 1.256 2.353 3.811 2.029 7.55-.635 7.315-4.791 18.372-12.652 33.559-.541 1.044-.277 2.262.665 3.076.943.815 2.375 1.061 3.618.624 27.941-9.84 48.644-15.623 62.5-17.508 4.354-.592 7.988-.795 10.919-.583 2.372.171 4.207.575 5.448 1.385 1.143.746 1.541 1.883 1.459 3.32-.079 1.401-.581 3.017-1.44 4.858-3.723 7.976-13.804 19.459-29.734 34.33-1.004.937-1.138 2.33-.327 3.393.812 1.063 2.366 1.53 3.787 1.139 11.726-3.232 19.679-2.831 24.131.316 4.117 2.911 4.627 8.032 2.567 13.666-4.779 13.069-23.416 28.575-53.026 32.173-1.69.205-2.915 1.469-2.824 2.913.091 1.444 1.469 2.59 3.174 2.642 6.681.201 12.049.674 16.241 1.399 3.077.533 5.473 1.185 7.234 1.989 1.221.557 2.087 1.129 2.486 1.852.557 1.014-.003 2.141-.939 3.445-1.483 2.065-4.069 4.307-7.471 6.721-10.245 7.27-27.597 15.749-46.838 24.19-39.857 17.487-136.381 29.956-170.28 25.751-3.721-.461-6.606-1.084-8.404-2.022-.538-.281-1.043-.484-.883-.919.394-1.071-.008-2.238-1.019-2.962-1.012-.725-2.437-.866-3.618-.359-45.106 19.367-87.559 36.293-127.006 50.451-1.676.601-2.459 2.24-1.749 3.66s2.645 2.083 4.321 1.482c38.434-13.795 79.714-30.207 123.513-48.94.377.474.849.926 1.415 1.357 2.201 1.676 6.471 3.033 12.475 3.778 34.691 4.303 133.478-8.422 174.267-26.317 24.345-10.681 45.678-21.534 54.27-29.951 4.833-4.734 5.849-9.065 3.49-12.412-1.299-1.843-3.784-3.555-7.85-4.837-1.446-.456-3.122-.868-5.039-1.231 22.233-6.995 36.113-20.597 40.356-32.2 2.977-8.141 1.31-15.401-4.639-19.607-4.182-2.956-10.792-4.512-20.003-3.43 12.658-12.416 20.726-22.281 24.052-29.406 3.274-7.016 2.118-11.886-2.126-14.656-2.917-1.903-7.758-2.908-14.68-2.55-12.823.664-33.778 5.854-63.305 15.943 6.216-12.82 9.46-22.452 10.038-29.112.545-6.284-1.335-10.3-4.62-12.41-2.325-1.493-5.489-2.17-9.524-1.8-4.853.445-11.242 2.472-19.007 6.089-18.809 8.761-46.372 27.017-80.985 52.987 2.734-9.393 3.314-16.865 2.24-22.584-1.047-5.57-3.645-9.614-7.309-12.342-5.964-4.44-15.019-5.481-25.873-3.187-14.787 3.126-33.203 12.446-50.917 26.218-26.004 20.219-50.553 50.01-59.997 83.304-66.827 37.391-125.459 64.728-170.185 74.79-28.865 6.494-51.735 5.852-66.873-4.628-10.004-6.926-16.475-18.104-19.203-34.026-4.269-24.911.661-61.082 16.348-110.668.265-.838.055-1.734-.568-2.423-.624-.688-1.591-1.092-2.615-1.092H786.24c-1.367 0-2.592.714-3.079 1.796-7.698 17.081-14.305 33.158-19.853 48.26-.54 1.473.43 3.038 2.168 3.496 1.738.459 3.586-.364 4.127-1.836Z" fill="#000000" class="color000 svgShape"></path><path fill="#71cad2" d="m899.748 230.352-5.715-54.464 55-9.077 8.572 55.674 62.143-.605 2.857 36.914-59.286 29.652-7.857 58.094h-46.429l-9.285-62.33-70.001 11.497-.714-53.252 70.715-12.103Zm1220.01 0-5.714-54.464 55-9.077 8.571 55.674 62.143-.605 2.858 36.914-59.286 29.652-7.858 58.094h-46.428l-9.286-62.33-70.001 11.497-.714-53.252 70.715-12.103Z" class="color71cad2 svgShape"></path></svg></g></svg>