<?xml version="1.0" encoding="utf-8"?>
<svg xmlns="http://www.w3.org/2000/svg" xmlns:xlink="http://www.w3.org/1999/xlink" version= "1.1" width="1080px" height="2252px" viewBox="0 0 1080 2252">
<g id="layer1">
<g style="fill:rgb(0,0,0); fill-opacity:1.0; stroke-linejoin: miter">
<path d="M161.56274,1463.5067L557.5859,1461.0901L953.609,1458.6736Q1012.17084,1563.6969,1070.7324,1668.7202Q548.0889,1668.7212,25.44537,1668.7222Q93.50407,1566.1144,161.56274,1463.5067"/>
</g>
<g style="fill:rgb(0,0,0); fill-opacity:1.0; stroke-linejoin: miter">
<path d="M951.2228,1469.2689L555.13995,1470.4126L159.0571,1471.5563Q92.25099,1570.1381,25.444918,1668.7198Q548.08826,1668.7205,1070.7317,1668.7212Q1010.9772,1568.9951,951.2228,1469.2689"/>
</g>
<g style="fill:rgb(0,0,0); fill-opacity:1.0; stroke-linejoin: miter">
<path d="M951.91394,1132.2496L942.3495,1186.4219Q898.4396,1348.5144,761.1268,1433.7112Q622.9463,1518.7336,452.16855,1481.3992Q290.0776,1437.4893,204.8818,1300.1754Q177.6229,1255.8198,162.32709,1205.333L150.4494,1153.8445Q141.77618,1101.0886,147.63042,1045.3868Q170.39847,874.96606,296.12592,773.74774Q421.85336,672.5294,593.2039,686.67267Q763.6231,709.4406,864.8402,835.16907Q966.05756,960.89746,951.91394,1132.2496"/>
</g>
<g style="fill:rgb(255,255,255); fill-opacity:1.0; stroke-linejoin: miter">
<path d="M575.68506,759.75037Q502.87625,749.1142,489.16266,845.371Q486.20612,894.5258,496.22583,913.22156Q503.45322,928.08246,510.16315,937.09314Q538.07104,965.9078,541.33386,973.4477Q550.6603,982.3834,555.88965,985.1188Q581.3893,999.9296,593.0242,988.7313Q596.40924,986.8888,602.1641,977.2684Q617.9058,947.5703,620.5214,938.66364Q626.2746,912.40814,626.4205,893.5631L627.01666,818.96014Q627.76526,808.84607,627.8508,802.8233Q627.175,793.80676,625.57764,789.5406 Z"/>
</g>
<g style="fill:rgb(255,255,255); fill-opacity:1.0; stroke-linejoin: miter">
<path d="M568.27905,1068.1925Q549.32196,1077.7864,530.04285,1074.1375Q524.833,1072.8171,522.3745,1070.988Q507.95804,1058.7847,490.05905,1048.3906Q462.12766,1024.7388,443.51752,975.06323Q432.10464,934.38434,434.41125,931.44794L439.28275,880.51514Q441.25488,868.66156,442.15186,867.1672Q457.94632,838.0614,494.86197,841.8636Q512.66925,842.84796,536.755,885.8076L563.43286,933.023Q575.80725,960.927,589.7911,1003.1455Q598.705,1024.9299,607.9581,1036.5339Q609.79425,1043.0703,597.1075,1060.7341Q587.7253,1071.6909,574.8254,1070.001 Z"/>
</g>
<g style="fill:rgb(255,255,255); fill-opacity:1.0; stroke-linejoin: miter">
<path d="M557.73364,761.04333Q529.91064,760.756,508.07898,767.1964Q488.8628,771.98035,483.55447,777.5847Q468.64282,790.17554,459.31934,805.48846Q445.54016,835.3851,441.61984,854.5871Q436.96704,870.4847,438.82306,890.392Q441.19385,913.7985,449.3858,919.9955Q455.3186,927.66125,479.24435,930.5776Q484.4136,932.42053,516.63464,926.87317 Z"/>
</g>
<g style="fill:rgb(255,255,255); fill-opacity:1.0; stroke-linejoin: miter">
<path d="M623.39764,789.37524Q642.185,798.36523,646.7696,809.0003Q647.0411,804.6261,665.0979,868.6429Q668.98706,883.49,667.41974,909.3446Q662.7439,957.0234,657.7539,970.07947Q644.3535,1003.2451,641.96405,1005.5654L617.8582,1041.5232Q587.5802,1065.4069,578.38184,1065.6467Q564.23145,1069.0618,552.44415,1043.7554Q546.5329,1028.1058,545.39777,1012.1752L545.0855,992.4422Q545.0154,990.084,547.0411,987.22424 Z"/>
</g>
<g style="fill:rgb(255,255,255); fill-opacity:1.0; stroke-linejoin: miter">
<path d="M625.11774,1023.1669Q622.29517,1053.7072,610.93787,1061.1411Q606.3423,1063.8864,601.29297,1063.8967Q602.0835,1064.2961,575.01074,1062.6112Q568.17096,1062.458,564.8686,1062.9229 Z"/>
</g>
<g style="fill:rgb(255,255,255); fill-opacity:1.0; stroke-linejoin: miter">
<path d="M623.58093,1022.01306Q623.4613,1027.4583,622.6318,1033.2444Q621.1596,1037.8809,619.4671,1040.388Q618.40283,1042.4585,610.25226,1048.6317L601.69104,1057.6804Q600.0577,1059.265,596.21045,1062.3049Q585.23096,1070.6736,580.7423,1071.0066Q575.03625,1071.7268,573.38043,1070.9578Q568.29175,1069.2944,566.97815,1066.5906 Z"/>
</g>
<g style="fill:rgb(255,255,255); fill-opacity:1.0; stroke-linejoin: miter">
<path d="M580.67163,1056.584Q573.1469,1068.3749,568.5162,1070.821Q566.77325,1072.0371,563.2821,1072.8347Q553.8582,1075.3032,550.7081,1075.1536Q547.17096,1075.1512,544.163,1073.8474Q537.42957,1071.2263,535.46094,1069.5059Q532.72577,1067.7367,532.5381,1054.7776 Z"/>
</g>
<g style="fill:rgb(0,0,0); fill-opacity:1.0; stroke-linejoin: miter">
<path d="M293.58105,1418.8472L293.58105,1418.8472C292.3973,1420.8542,291.95572,1423.4565,292.3953,1426.0076L292.3953,1426.0076C292.8343,1428.5552,294.12766,1431.0701,296.04285,1433.1517L296.0428,1433.1516C297.95676,1435.2318,300.47266,1436.8861,303.30667,1438.0061L303.30652,1438.006C306.13995,1439.1256,309.26532,1439.7133,312.49884,1439.8262L312.31857,1439.8229C312.38696,1439.823,312.39972,1439.823,312.45932,1439.823L312.45932,1439.823C322.268,1439.823,332.11993,1436.0464,341.24088,1430.5494L341.23883,1430.5507C359.45782,1419.5599,373.01257,1401.5963,383.27917,1381.9347L383.27917,1381.9347C393.50894,1362.3438,400.52304,1341.0685,405.56244,1319.2682L405.56003,1319.2787C414.62662,1279.7075,417.88797,1238.8661,418.3721,1197.979C418.4084,1194.9186,420.91876,1192.467,423.9792,1192.5033C427.0396,1192.5396,429.4912,1195.0499,429.45493,1198.1104L429.45493,1198.1104C428.96524,1239.4666,425.66605,1281.1538,416.36368,1321.754L416.36127,1321.7645C411.17633,1344.1943,403.8865,1366.4153,393.104,1387.0648L393.104,1387.0648C382.3585,1407.6436,367.6158,1427.5828,346.964,1440.0411L346.96194,1440.0424C336.9017,1446.1053,325.03928,1450.9067,312.45932,1450.9067L312.45932,1450.9067C312.38214,1450.9067,312.3606,1450.9065,312.2922,1450.9064C312.2323,1450.9062,312.1718,1450.9052,312.11194,1450.9031L312.11194,1450.9031C307.8107,1450.7528,303.41168,1449.9652,299.23334,1448.3141L299.2332,1448.314C295.0555,1446.6631,291.0771,1444.1243,287.8863,1440.6562L287.88623,1440.6561C284.6968,1437.1896,282.31396,1432.7721,281.47263,1427.8896L281.47263,1427.8896C280.63184,1423.0103,281.38815,1417.7028,284.0343,1413.2163C285.5892,1410.5801,288.98682,1409.7034,291.62308,1411.2583C294.25934,1412.8132,295.13596,1416.2109,293.58105,1418.8472 Z"/>
</g>
<g style="fill:rgb(0,0,0); fill-opacity:1.0; stroke-linejoin: miter">
<path d="M429.25198,1196.8596L429.25198,1196.8596C438.7831,1228.8359,446.0371,1261.6556,449.49924,1294.9976L449.49924,1294.9976C452.94412,1328.1736,453.11755,1363.8165,439.42776,1395.5555L439.42776,1395.5555C433.55588,1409.1692,424.80878,1421.9591,412.9182,1431.4482L412.9182,1431.4482C403.25916,1439.1566,391.64056,1444.5269,379.33774,1446.5432L379.33777,1446.5432C375.64352,1447.1487,371.90244,1447.449,368.16696,1447.449L368.16696,1447.449C359.45795,1447.449,350.74014,1445.8184,342.6184,1442.5946C339.77365,1441.4655,338.3829,1438.2439,339.5121,1435.3992C340.64127,1432.5544,343.86276,1431.1637,346.70752,1432.2928L346.70752,1432.2928C353.50153,1434.9896,360.82944,1436.3652,368.16696,1436.3652L368.16696,1436.3652C371.31018,1436.3652,374.45074,1436.1127,377.54517,1435.6055L377.5452,1435.6055C387.868,1433.9137,397.74298,1429.3783,406.00464,1422.7852L406.00464,1422.7852C416.18585,1414.66,423.93817,1403.4822,429.25046,1391.1659L429.25046,1391.1659C441.78226,1362.1116,441.86798,1328.8196,438.47488,1296.1423L438.47488,1296.1423C435.0989,1263.63,428.01135,1231.4989,418.63016,1200.0256C417.7559,1197.0925,419.42493,1194.006,422.35806,1193.1317C425.2912,1192.2574,428.37772,1193.9265,429.25198,1196.8596 Z"/>
</g>
<g style="fill:rgb(0,0,0); fill-opacity:1.0; stroke-linejoin: miter">
<path d="M314.41794,1443.672L314.41794,1443.672C317.42624,1452.1448,319.28674,1461.0663,319.76852,1470.104L319.76852,1470.104C320.2479,1479.0967,319.41068,1488.5519,316.08167,1497.4143L316.08167,1497.4143C314.2945,1502.1721,311.72116,1506.8307,308.15436,1510.8196L308.1543,1510.8196C304.58084,1514.8158,299.97653,1518.1187,294.65894,1519.923L294.65878,1519.923C291.7503,1520.9098,288.68332,1521.4092,285.6255,1521.4092L285.6255,1521.4092C281.7621,1521.4092,277.85413,1520.6125,274.25507,1518.9369L274.25513,1518.9369C267.84497,1515.9526,262.76004,1510.3192,260.48233,1503.6011L271.2264,1502.535C270.02576,1511.7842,265.60947,1520.5516,258.8902,1527.0211L258.8902,1527.0211C252.171,1533.4905,243.23958,1537.5743,233.94493,1538.4122L233.95482,1538.4114C237.29839,1538.1039,230.26411,1538.7468,233.9451,1538.4122L233.93962,1538.4127C232.73216,1538.5212,231.51724,1538.5754,230.30754,1538.5754L230.30754,1538.5754C223.42497,1538.5754,216.55048,1536.8363,210.49475,1533.5438L210.49472,1533.5437C202.63347,1529.2695,196.36035,1522.5018,192.35403,1514.7118L192.35403,1514.7118C188.35213,1506.9304,186.58734,1498.251,186.55254,1489.7762L186.55254,1489.7762C186.50713,1478.7179,189.31187,1467.9498,193.50099,1458.1447L193.50099,1458.1447C197.69131,1448.3367,203.3039,1439.2716,209.6219,1430.9329L209.62192,1430.9327C220.37015,1416.747,233.49847,1404.4044,248.22998,1394.4626L248.22997,1394.4626C257.79456,1388.0078,267.98022,1382.651,277.84113,1377.4594L277.84122,1377.4594C281.3833,1375.5945,284.84613,1373.7715,288.31494,1371.8839L288.31488,1371.8839C301.4431,1364.7399,313.7352,1356.721,323.2286,1346.1274L323.2286,1346.1274C332.6694,1335.5927,339.2146,1322.4733,342.74878,1308.5438L342.74878,1308.5438C346.3116,1294.5015,347.10114,1279.7886,347.59427,1264.6467L347.59427,1264.6467C348.50095,1236.8069,349.5832,1207.4666,359.41162,1180.1852L359.41162,1180.1852C369.2614,1152.8445,387.275,1128.4095,410.91086,1111.3612L410.9109,1111.3612C435.60913,1093.5466,465.9815,1083.8469,496.4046,1083.8469L496.4046,1083.8469C497.648,1083.8469,498.8657,1083.8628,500.10892,1083.895L494.45477,1088.8468L497.13452,1063.7407C497.3314,1061.8962,498.438,1060.2726,500.08276,1059.4149C501.72754,1058.5573,503.6923,1058.5795,505.31732,1059.4739L505.31732,1059.4739C519.6769,1067.3778,536.0649,1071.5874,552.45685,1071.5874L552.45685,1071.5874C552.6541,1071.5874,552.7503,1071.5872,552.9477,1071.5862L552.9467,1071.5862C567.857,1071.5099,582.7491,1067.9596,596.0904,1061.3013C598.829,1059.9346,602.157,1061.0466,603.52374,1063.7852C604.8905,1066.5237,603.77844,1069.8518,601.03986,1071.2185L601.03986,1071.2185C586.179,1078.6353,569.6122,1082.5846,553.0035,1082.6697L553.0025,1082.6697C552.8051,1082.6707,552.6541,1082.6711,552.45685,1082.6711L552.45685,1082.6711C534.1974,1082.6711,515.97046,1077.9895,499.97272,1069.1838L508.15552,1064.917L505.47583,1090.0231C505.1693,1092.8948,502.70874,1095.0497,499.8217,1094.9749L499.8217,1094.9749C498.66638,1094.945,497.56012,1094.9307,496.4046,1094.9307L496.4046,1094.9307C468.2832,1094.9307,440.1844,1103.9125,417.3947,1120.3505L417.39474,1120.3505C395.6368,1136.0443,378.95984,1158.6249,369.83917,1183.9418L369.83917,1183.9418C360.69733,1209.3174,359.5872,1236.9075,358.67203,1265.0076L358.67203,1265.0076C358.1789,1280.1492,357.38058,1295.9434,353.492,1311.2697L353.492,1311.2697C349.57446,1326.7101,342.2636,1341.4943,331.48276,1353.5244L331.48276,1353.5244C320.73053,1365.5226,307.13046,1374.2634,293.61273,1381.6195L293.61267,1381.6195C290.06137,1383.552,286.5398,1385.4055,283.00455,1387.2667L283.00464,1387.2667C273.05298,1392.5062,263.41003,1397.5896,254.43016,1403.6499L254.43015,1403.6499C240.68594,1412.9254,228.4544,1424.4304,218.45618,1437.6263L218.45619,1437.6262C212.55482,1445.415,207.45253,1453.7004,203.69337,1462.4991L203.69337,1462.4991C199.93285,1471.3011,197.59837,1480.5555,197.63606,1489.7308L197.63606,1489.7308C197.66486,1496.7435,199.12932,1503.6515,202.21054,1509.6427L202.21054,1509.6427C205.2867,1515.624,210.04483,1520.6832,215.789,1523.8064L215.78897,1523.8063C220.2132,1526.2117,225.26575,1527.4917,230.30754,1527.4917L230.30754,1527.4917C231.19086,1527.4917,232.0691,1527.4526,232.9471,1527.3737L232.94162,1527.3741C236.9413,1527.0105,229.27776,1527.711,232.93993,1527.3743L232.94981,1527.3734C239.72618,1526.7626,246.29784,1523.7593,251.20271,1519.0367L251.20271,1519.0367C256.10706,1514.3147,259.35852,1507.8602,260.23502,1501.1083C260.5669,1498.5516,262.61804,1496.5614,265.18356,1496.3069C267.74908,1496.0524,270.15128,1497.6006,270.9791,1500.0422L270.9791,1500.0422C272.27744,1503.8717,275.2464,1507.1725,278.93304,1508.8888L278.9331,1508.8888C280.9723,1509.8381,283.26926,1510.3254,285.6255,1510.3254L285.6255,1510.3254C287.48605,1510.3254,289.3491,1510.0204,291.09763,1509.4271L291.09747,1509.4271C294.37292,1508.3157,297.41714,1506.1995,299.89215,1503.4316L299.8921,1503.4316C302.37384,1500.6561,304.302,1497.2543,305.70587,1493.5168L305.70587,1493.5168C308.34653,1486.4869,309.1249,1478.654,308.7006,1470.6941L308.7006,1470.6941C308.27866,1462.7787,306.64523,1454.9064,303.9731,1447.3805C302.94904,1444.4962,304.45703,1441.3279,307.34128,1440.3038C310.22552,1439.2798,313.39386,1440.7877,314.41794,1443.672 Z"/>
</g>
<g style="fill:rgb(0,0,0); fill-opacity:1.0; stroke-linejoin: miter">
<path d="M682.62024,1198.1619L682.62024,1198.1619C673.2392,1229.6344,666.15125,1261.7667,662.7753,1294.2784L662.7753,1294.2784C659.38226,1326.9556,659.4681,1360.2478,671.9998,1389.3019L671.9998,1389.3019C677.3122,1401.6183,685.06433,1412.796,695.2457,1420.9211L695.2457,1420.9211C703.5068,1427.5139,713.3831,1432.0498,723.7052,1433.7415L723.7052,1433.7415C726.79865,1434.2484,729.9411,1434.5013,733.0834,1434.5013L733.0834,1434.5013C740.42053,1434.5013,747.74915,1433.1255,754.5428,1430.4288C757.3875,1429.2997,760.6091,1430.6904,761.7382,1433.5352C762.8674,1436.3799,761.4766,1439.6014,758.6319,1440.7306L758.6319,1440.7306C750.51056,1443.9542,741.79205,1445.5848,733.0834,1445.5848L733.0834,1445.5848C729.34875,1445.5848,725.60583,1445.2845,721.9126,1444.6792L721.9126,1444.6792C709.6106,1442.6631,697.9906,1437.2921,688.33215,1429.5842L688.33215,1429.5842C676.4414,1420.095,667.6945,1407.3053,661.8226,1393.6915L661.8226,1393.6915C648.13275,1361.9524,648.3061,1326.3099,651.75104,1293.1337L651.75104,1293.1337C655.21313,1259.7919,662.46735,1226.9716,671.9984,1194.9958C672.8727,1192.0627,675.9592,1190.3937,678.89233,1191.268C681.82544,1192.1422,683.4945,1195.2288,682.62024,1198.1619 Z"/>
</g>
<g style="fill:rgb(0,0,0); fill-opacity:1.0; stroke-linejoin: miter">
<path d="M817.2163,1411.353L817.2163,1411.353C819.8619,1415.8396,820.6178,1421.1471,819.77686,1426.0259L819.77686,1426.0259C818.9355,1430.9077,816.5524,1435.3256,813.36334,1438.7919L813.36334,1438.7919C810.17285,1442.2596,806.1942,1444.7988,802.0169,1446.4497L802.01685,1446.4497C797.839,1448.1007,793.4395,1448.8889,789.13837,1449.0392C789.0828,1449.0411,789.0265,1449.0422,788.97095,1449.0425L788.97095,1449.0425C788.9017,1449.0428,788.8409,1449.0427,788.78906,1449.0427L788.78906,1449.0427C776.2094,1449.0427,764.34827,1444.2416,754.2883,1438.1785L754.28625,1438.1772C733.635,1425.7185,718.893,1405.7784,708.14777,1385.2002L708.14777,1385.2002C697.3653,1364.5507,690.0748,1342.3304,684.88916,1319.9009L684.8867,1319.8905C675.5828,1279.2908,672.28284,1237.6025,671.7955,1196.2461C671.7594,1193.1857,674.2112,1190.6754,677.2716,1190.6394C680.33203,1190.6034,682.8423,1193.055,682.87836,1196.1155L682.87836,1196.1155C683.3602,1237.0027,686.6221,1277.8434,695.6903,1317.4147L695.68787,1317.4043C700.72784,1339.2036,707.7431,1360.4794,717.9726,1380.0701L717.9726,1380.0701C728.239,1399.7313,741.79333,1417.696,760.0117,1428.687L760.00964,1428.6858C769.1298,1434.1825,778.9812,1437.9592,788.78906,1437.9592L788.78906,1437.9592C788.80646,1437.9592,788.9188,1437.959,788.9188,1437.959L788.7514,1437.9623C791.98425,1437.8494,795.11017,1437.2615,797.94324,1436.1418L797.9432,1436.1418C800.777,1435.022,803.29297,1433.3676,805.2067,1431.2875L805.2067,1431.2875C807.12146,1429.2064,808.4152,1426.6907,808.85425,1424.1433L808.85425,1424.1433C809.2939,1421.5928,808.8527,1418.9902,807.66895,1416.9827C806.1143,1414.3462,806.99133,1410.9487,809.62775,1409.3942C812.26416,1407.8396,815.6617,1408.7166,817.2163,1411.353 Z"/>
</g>
<g style="fill:rgb(0,0,0); fill-opacity:1.0; stroke-linejoin: miter">
<path d="M797.27716,1445.517L797.27716,1445.517C794.60504,1453.0431,792.9717,1460.9147,792.54974,1468.8303L792.54974,1468.8303C792.1254,1476.7899,792.9039,1484.6233,795.54443,1491.6528L795.54443,1491.6528C796.9482,1495.3899,798.8764,1498.7921,801.3582,1501.5676L801.3582,1501.5676C803.83374,1504.336,806.87695,1506.4517,810.1527,1507.5631L810.1527,1507.5631C811.9022,1508.1567,813.7634,1508.4614,815.6248,1508.4614L815.6248,1508.4614C817.9806,1508.4614,820.2786,1507.9739,822.31714,1507.0248L822.3172,1507.0248C826.0039,1505.3083,828.97266,1502.008,830.2711,1498.1782C831.09894,1495.7366,833.50116,1494.1884,836.06665,1494.4429C838.63214,1494.6974,840.6833,1496.6876,841.0152,1499.2443L841.0152,1499.2443C841.8918,1505.997,845.14276,1512.4503,850.04755,1517.1727L850.04755,1517.1727C854.9527,1521.8955,861.52423,1524.8987,868.3005,1525.5094L868.30054,1525.5094C869.1799,1525.5886,870.05676,1525.6277,870.9428,1525.6277L870.9428,1525.6277C875.9858,1525.6277,881.03595,1524.3484,885.46136,1521.9423L885.46136,1521.9423C891.2056,1518.8192,895.9633,1513.7607,899.03973,1507.7789L899.03973,1507.7788C902.121,1501.7877,903.58545,1494.8798,903.6143,1487.8672L903.6143,1487.8672C903.6521,1478.6917,901.3176,1469.4377,897.55707,1460.6355L897.55707,1460.6356C893.7975,1451.836,888.6959,1443.5518,882.7942,1435.7625L882.7942,1435.7625C872.79675,1422.5675,860.5637,1411.0609,846.8202,1401.7858L846.8202,1401.7858C837.8388,1395.7244,828.1958,1390.6411,818.24255,1385.401L818.24243,1385.401C814.7327,1383.5532,811.16364,1381.674,807.63776,1379.7554L807.63776,1379.7554C794.1193,1372.399,780.52045,1363.6592,769.76764,1351.6606L769.7676,1351.6606C758.9867,1339.6306,751.67566,1324.8462,747.7582,1309.4059L747.7582,1309.4059C743.8696,1294.0795,743.0714,1278.2853,742.57837,1263.1434L742.57837,1263.1434C741.6634,1235.0433,740.5533,1207.4532,731.4114,1182.0778L731.4114,1182.0778C722.2909,1156.7614,705.6136,1134.1804,683.85565,1118.4866L683.85565,1118.4866C661.0662,1102.0487,632.9671,1093.0669,604.84576,1093.0669L604.84576,1093.0669C603.7028,1093.0669,602.5714,1093.0814,601.42865,1093.1111C598.54156,1093.1859,596.08105,1091.031,595.77454,1088.1593L595.77454,1088.1593L593.09485,1063.053L601.27765,1067.3198C585.2802,1076.1254,567.0527,1080.8073,548.7935,1080.8073L548.7935,1080.8073C548.6567,1080.8073,548.37946,1080.8064,548.24786,1080.8058L548.2469,1080.8058C531.63794,1080.7207,515.0717,1076.7716,500.21057,1069.3547C497.47202,1067.988,496.35992,1064.6599,497.72668,1061.9214C499.09344,1059.1829,502.42148,1058.0708,505.16003,1059.4375L505.16003,1059.4375C518.50165,1066.0961,533.39294,1069.646,548.30365,1069.7223L548.3027,1069.7223C548.43427,1069.7229,548.6671,1069.7235,548.7935,1069.7235L548.7935,1069.7235C565.1858,1069.7235,581.5732,1065.514,595.93304,1057.6099C597.55804,1056.7155,599.5228,1056.6932,601.1676,1057.5509C602.8124,1058.4086,603.919,1060.0322,604.11584,1061.8767L604.11584,1061.8767L606.79553,1086.983L601.1414,1082.0312C602.3721,1081.9994,603.6149,1081.9832,604.84576,1081.9832L604.84576,1081.9832C635.26874,1081.9832,665.64154,1091.6829,690.33954,1109.4973L690.33954,1109.4973C713.97534,1126.5455,731.98944,1150.9811,741.839,1178.3212L741.839,1178.3212C751.6674,1205.6022,752.7496,1234.9429,753.6561,1262.7828L753.6561,1262.7828C754.1492,1277.9248,754.9386,1292.6373,758.50146,1306.68L758.50146,1306.68C762.03564,1320.6097,768.5806,1333.7288,778.0217,1344.2637L778.02167,1344.2637C787.51544,1354.8574,799.80695,1362.8756,812.9355,1370.0198L812.9355,1370.0198C816.3837,1371.8961,819.88446,1373.7395,823.406,1375.5936L823.4059,1375.5936C833.2684,1380.7859,843.4543,1386.1426,853.0204,1392.5985L853.0204,1392.5985C867.752,1402.5405,880.8803,1414.8834,891.6284,1429.0691L891.6284,1429.0691C897.9466,1437.4081,903.55896,1446.4727,907.74945,1456.2809L907.74945,1456.281C911.93866,1466.0864,914.74335,1476.8539,914.6978,1487.9128L914.6978,1487.9128C914.66296,1496.3872,912.8982,1505.0668,908.8962,1512.8481L908.8962,1512.848C904.8898,1520.6381,898.61676,1527.4058,890.75555,1531.6798L890.75555,1531.6798C884.6986,1534.9729,877.8266,1536.7114,870.9428,1536.7114L870.9428,1536.7114C869.7302,1536.7114,868.51697,1536.6575,867.3054,1536.5482L867.3055,1536.5482C858.0106,1535.7104,849.0795,1531.6267,842.36005,1525.1571L842.36005,1525.1571C835.64056,1518.6875,831.2245,1509.9207,830.02374,1500.671L840.7678,1501.737C838.49005,1508.4553,833.4055,1514.0885,826.9952,1517.0729L826.99524,1517.0729C823.39685,1518.7482,819.4876,1519.5452,815.6248,1519.5452L815.6248,1519.5452C812.56604,1519.5452,809.501,1519.0461,806.59155,1518.059L806.59155,1518.059C801.2735,1516.2546,796.6697,1512.9521,793.096,1508.9556L793.096,1508.9556C789.52905,1504.9664,786.9558,1500.308,785.1687,1495.5503L785.1687,1495.5503C781.8397,1486.688,781.0025,1477.2328,781.4819,1468.2402L781.4819,1468.2402C781.9637,1459.2023,783.82404,1450.2815,786.83234,1441.8085C787.8564,1438.9242,791.02466,1437.4163,793.90894,1438.4403C796.7932,1439.4644,798.3012,1442.6327,797.27716,1445.517 Z"/>
</g>
<g style="fill:rgb(0,0,0); fill-opacity:1.0; stroke-linejoin: miter">
<path d="M318.05002,1475.2449L318.05002,1475.2449L373.28375,1470.3224C373.35852,1470.3157,373.4334,1470.3105,373.5084,1470.3069L373.5084,1470.3069C377.98438,1470.0907,382.47784,1469.9827,386.95825,1469.9827L386.95825,1469.9827C416.89703,1469.9827,446.83017,1474.7866,475.25934,1484.1918L475.2593,1484.1918C494.66727,1490.6124,513.3711,1499.1604,530.9271,1509.6333C532.84467,1510.7772,533.8884,1512.9601,533.5749,1515.1708C533.26135,1517.3815,531.6518,1519.1881,529.4918,1519.7537L529.4918,1519.7537L465.35947,1536.5472C465.24515,1536.5771,465.12985,1536.6034,465.01385,1536.626L465.01385,1536.626C462.16415,1537.1803,459.2672,1537.4563,456.37167,1537.4563L456.37167,1537.4563C453.04657,1537.4563,449.7165,1537.092,446.46338,1536.3627L446.46347,1536.3627C439.43182,1534.7864,432.8006,1531.508,427.27853,1526.8782L427.37143,1526.9543C423.17786,1523.5903,418.23788,1521.1456,413.01978,1519.8522L412.92523,1519.8279L412.92386,1519.8275L413.01877,1519.8519C410.188,1519.1504,407.26575,1518.805,404.32095,1518.805L404.32095,1518.805C395.65164,1518.805,386.99097,1521.8015,380.3713,1527.2501L380.46747,1527.1692L322.73138,1576.9307C322.61493,1577.031,322.49432,1577.1265,322.3699,1577.2168L322.3699,1577.2168C318.628,1579.9343,315.88577,1584.0623,314.83102,1588.5647L314.83102,1588.5647C313.77618,1593.0675,314.39972,1597.9834,316.54532,1602.0803L316.54532,1602.0803C318.9695,1606.7092,323.38327,1610.3185,328.40143,1611.7753L328.4861,1611.8005L328.4873,1611.8009L328.40216,1611.7754C330.12668,1612.2759,331.93924,1612.5272,333.76996,1612.5272L333.76996,1612.5272C337.23007,1612.5272,340.66983,1611.6301,343.606,1609.9363C343.73395,1609.8624,343.86472,1609.7938,343.99817,1609.7305L343.99817,1609.7305C367.9458,1598.3594,393.64185,1590.8293,419.83218,1587.0942L419.8323,1587.0942C434.51855,1585.0001,449.3267,1584.0894,464.09686,1584.0894L464.09686,1584.0894C469.77405,1584.0894,475.45462,1584.2241,481.11502,1584.4779L481.11505,1584.4779C514.13947,1585.9584,546.7249,1591.3524,578.9393,1596.6785L578.9393,1596.6785C595.0193,1599.337,611.0507,1601.9867,627.07684,1604.153L627.07684,1604.153C653.6169,1607.7404,680.43146,1609.7522,707.1654,1609.7522L707.1654,1609.7522C745.9982,1609.7522,784.64484,1605.5078,822.05383,1595.6962C822.1348,1595.6749,822.21564,1595.6556,822.2975,1595.6381L822.2975,1595.6381C832.9929,1593.3439,842.76794,1586.8163,848.9853,1577.8163L848.98535,1577.8163C853.7613,1570.903,856.47766,1562.5593,856.6875,1554.1593L856.6875,1554.1594C856.8973,1545.7588,854.60077,1537.2906,850.1758,1530.1473C848.564,1527.5454,849.3667,1524.1295,851.9686,1522.5178C854.57056,1520.9061,857.9864,1521.7087,859.59814,1524.3107L859.59814,1524.3107C865.15857,1533.287,868.0313,1543.8798,867.7677,1554.436L867.7677,1554.4362C867.504,1564.9917,864.10614,1575.4285,858.1045,1584.1161L858.10455,1584.1161C850.2828,1595.4385,838.0774,1603.589,824.6221,1606.4752L824.8657,1606.4171C786.4055,1616.5045,746.79846,1620.8359,707.1654,1620.8359L707.1654,1620.8359C679.8783,1620.8359,652.56573,1618.7826,625.5922,1615.1366L625.5922,1615.1366C609.3634,1612.943,593.1978,1610.2699,577.1313,1607.6135L577.1313,1607.6135C544.8067,1602.2693,512.87317,1596.9963,480.61865,1595.5504L480.61868,1595.5504C475.11078,1595.3035,469.60236,1595.1731,464.09686,1595.1731L464.09686,1595.1731C449.77756,1595.1731,435.50098,1596.0558,421.39688,1598.0669L421.397,1598.0669C396.25735,1601.6521,371.64194,1608.8739,348.75232,1619.7427L349.1445,1619.5369C344.46252,1622.2379,339.10083,1623.611,333.76996,1623.611L333.76996,1623.611C330.93127,1623.611,328.07498,1623.2216,325.31293,1622.4199L325.22778,1622.3944L325.2266,1622.394L325.31128,1622.4193C317.39478,1620.1211,310.5512,1614.525,306.7267,1607.2224L306.7267,1607.2224C303.3467,1600.7686,302.37784,1593.1301,304.03958,1586.0366L304.03958,1586.0366C305.7013,1578.9432,309.96188,1572.53,315.85684,1568.2488L315.49536,1568.5349L373.23145,1518.7734C373.26324,1518.7461,373.2952,1518.7191,373.3276,1518.6925L373.3276,1518.6925C382.0145,1511.5425,393.19193,1507.7213,404.32095,1507.7213L404.32095,1507.7213C408.12967,1507.7213,411.9516,1508.1685,415.68478,1509.0936L415.7797,1509.118L415.78107,1509.1184L415.68652,1509.0941C422.464,1510.7742,428.8603,1513.9396,434.30673,1518.3086L434.39963,1518.3848C438.56418,1521.8765,443.585,1524.3586,448.88797,1525.5475L448.88806,1525.5475C451.33826,1526.0968,453.8521,1526.3726,456.37167,1526.3726L456.37167,1526.3726C458.56436,1526.3726,460.7522,1526.1637,462.8974,1525.7463L462.5518,1525.8251L526.6842,1509.0315L525.2489,1519.1519C508.38678,1509.093,490.41895,1500.8812,471.77817,1494.7145L471.77814,1494.7145C444.4756,1485.6821,415.71936,1481.0664,386.95825,1481.0664L386.95825,1481.0664C382.65213,1481.0664,378.34372,1481.17,374.043,1481.3777L374.26764,1481.3622L319.0339,1486.2847C315.98532,1486.5564,313.29373,1484.3053,313.02203,1481.2567C312.75034,1478.2081,315.00143,1475.5166,318.05002,1475.2449 Z"/>
</g>
<g style="fill:rgb(0,0,0); fill-opacity:1.0; stroke-linejoin: miter">
<path d="M219.16576,1530.6344L219.16576,1530.6344C218.39978,1543.3527,221.84297,1556.3182,228.81815,1566.9808L228.81816,1566.9808C235.79329,1577.6434,246.29353,1585.9924,258.2535,1590.3859L258.25348,1590.3859C264.79514,1592.7888,271.788,1593.9901,278.80444,1593.9901L278.80444,1593.9901C287.62717,1593.9901,296.42435,1592.0919,304.35254,1588.3613C307.12192,1587.0582,310.42334,1588.2468,311.72647,1591.0162C313.0296,1593.7856,311.84097,1597.087,309.0716,1598.3901L309.0716,1598.3901C299.6111,1602.8418,289.19446,1605.0739,278.80444,1605.0739L278.80444,1605.0739C270.53375,1605.0739,262.2433,1603.6592,254.43175,1600.7897L254.43175,1600.7897C240.23506,1595.5747,227.82251,1585.7052,219.54286,1573.0485L219.54288,1573.0485C211.26323,1560.3918,207.19298,1545.0648,208.10219,1529.9681C208.2862,1526.913,210.912,1524.5856,213.96713,1524.7695C217.02226,1524.9535,219.34976,1527.5792,219.16576,1530.6344 Z"/>
</g>
<g style="fill:rgb(0,0,0); fill-opacity:1.0; stroke-linejoin: miter">
<path d="M519.72473,1510.0604L519.72473,1510.0604C551.56836,1507.7263,582.9356,1501.0983,614.68134,1494.382L614.6813,1494.382C617.96063,1493.6881,621.60425,1492.9175,624.8883,1492.228L624.9041,1492.2247L624.9094,1492.2236L624.8936,1492.2269C641.3695,1488.768,658.4892,1485.7386,675.82275,1485.7386L675.82275,1485.7386C677.7788,1485.7386,679.7474,1485.7775,681.71094,1485.8584L681.71106,1485.8584C709.4683,1487.0024,737.2091,1497.6366,757.3684,1517.212C759.5642,1519.3442,759.6158,1522.8528,757.4836,1525.0486C755.3514,1527.2444,751.8429,1527.2959,749.6471,1525.1637L749.6471,1525.1637C731.6659,1507.7032,706.6157,1497.9778,681.25464,1496.9326L681.25476,1496.9326C679.4492,1496.8583,677.6325,1496.8224,675.82275,1496.8224L675.82275,1496.8224C659.69073,1496.8224,643.5041,1499.645,627.17084,1503.0741L627.155,1503.0774L627.1497,1503.0785L627.1655,1503.0752C623.8989,1503.761,620.2484,1504.533,616.9756,1505.2255L616.9755,1505.2255C585.3545,1511.9154,553.2533,1518.7161,520.53503,1521.1144C517.48254,1521.3381,514.82666,1519.045,514.6029,1515.9926C514.37915,1512.9401,516.67224,1510.2842,519.72473,1510.0604 Z"/>
</g>
<g style="fill:rgb(0,0,0); fill-opacity:1.0; stroke-linejoin: miter">
<path d="M607.6489,780.90906L607.6489,780.90906C591.1384,769.32245,570.96655,762.9979,550.78174,762.9979L550.78174,762.9979C549.81573,762.9979,548.84265,763.01263,547.8769,763.04175L547.8771,763.04175C526.73975,763.68,505.8621,771.30505,489.0406,784.2277L489.0406,784.2277C476.41495,793.92706,466.03574,806.55505,458.54807,820.7254L458.54803,820.7254C443.6185,848.97943,440.31293,882.4508,442.46902,915.25635L442.46902,915.25635C444.54202,946.7971,450.54828,978.1429,463.23148,1006.64575L463.23148,1006.64575C471.6574,1025.5814,483.7115,1042.8928,500.10513,1054.4591L500.10516,1054.4591C513.64655,1064.0132,530.12964,1069.3898,546.6165,1069.3898L546.6165,1069.3898C547.7507,1069.3898,548.87714,1069.3647,550.009,1069.3136C553.06647,1069.1755,555.65704,1071.5422,555.7951,1074.5997C555.93317,1077.6572,553.56647,1080.2478,550.509,1080.3859L550.509,1080.3859C549.2113,1080.4445,547.91223,1080.4735,546.6165,1080.4735L546.6165,1080.4735C527.77045,1080.4735,509.06683,1074.3466,493.71545,1063.5155L493.71548,1063.5155C475.19003,1050.4451,462.05325,1031.2609,453.10513,1011.15173L453.10513,1011.15173C439.73593,981.10724,433.53897,948.38666,431.40927,915.9833L431.40927,915.9833C429.18536,882.1462,432.476,846.3425,448.7484,815.5472L448.74838,815.5472C456.9302,800.0631,468.31683,786.1716,482.28833,775.4383L482.28833,775.4383C500.9034,761.1377,524.014,752.6736,547.5425,751.96313L547.54266,751.96313C548.61633,751.9307,549.7078,751.9143,550.78174,751.9143L550.78174,751.9143C573.227,751.9143,595.6252,758.9306,614.01575,771.83655C616.52106,773.59467,617.1267,777.0509,615.3686,779.5562C613.6105,782.0615,610.15424,782.6672,607.6489,780.90906 Z"/>
</g>
<g style="fill:rgb(0,0,0); fill-opacity:1.0; stroke-linejoin: miter">
<path d="M486.97375,772.1647L486.97375,772.1647C505.36426,759.25885,527.7626,752.2425,550.2077,752.2425L550.2077,752.2425C551.2843,752.2425,552.3704,752.2589,553.4468,752.2914L553.44696,752.2914C576.97577,753.0019,600.0859,761.4658,618.7011,775.7665L618.7011,775.7665C632.67267,786.49976,644.0593,800.3914,652.2411,815.8754L652.2411,815.8754C668.51337,846.6707,671.804,882.47504,669.5801,916.3118L669.5801,916.3118C667.4504,948.71454,661.25323,981.43604,647.8842,1011.4801L647.8842,1011.4801C638.9362,1031.5889,625.79926,1050.7733,607.274,1063.8436L607.27405,1063.8436C591.92194,1074.6752,573.22015,1080.8015,554.3734,1080.8015L554.3734,1080.8015C553.08026,1080.8015,551.7747,1080.7725,550.4805,1080.714C547.4229,1080.5759,545.05615,1077.9854,545.1942,1074.9277C545.3323,1071.8701,547.9228,1069.5034,550.9804,1069.6415L550.9804,1069.6415C552.10876,1069.6924,553.24347,1069.7178,554.3734,1069.7178L554.3734,1069.7178C570.86053,1069.7178,587.3426,1064.3414,600.8843,1054.7872L600.88434,1054.7872C617.27783,1043.2211,629.33203,1025.9093,637.7579,1006.974L637.7579,1006.974C650.4408,978.4718,656.44727,947.12476,658.52026,915.5849L658.52026,915.5849C660.6764,882.77966,657.37085,849.3076,642.4414,821.05365L642.4414,821.05365C634.95404,806.88385,624.5741,794.25494,611.9488,784.5559L611.9488,784.5559C595.1273,771.6333,574.2499,764.0083,553.11237,763.37L553.11255,763.37C552.1495,763.34094,551.171,763.32623,550.2077,763.32623L550.2077,763.32623C530.0229,763.32623,509.8513,769.65063,493.34058,781.2373C490.83527,782.9955,487.37903,782.3897,485.62088,779.8844C483.86273,777.3791,484.46844,773.92285,486.97375,772.1647 Z"/>
</g>
<g style="fill:rgb(0,0,0); fill-opacity:1.0; stroke-linejoin: miter">
<path d="M483.26236,964.20264L483.26236,964.20264L504.70853,980.29865L498.05533,989.16327L476.60916,973.06726L483.26236,964.20264 M476.60916,973.06726C474.16125,971.23004,473.66623,967.7562,475.50345,965.30835C477.34067,962.8605,480.81445,962.3654,483.26236,964.20264L483.26236,964.20264L504.70853,980.29865C507.15643,982.13586,507.65146,985.6097,505.81424,988.05756C503.97702,990.50543,500.50323,991.0005,498.05533,989.16327L498.05533,989.16327L476.60916,973.06726 Z"/>
</g>
<g style="fill:rgb(0,0,0); fill-opacity:1.0; stroke-linejoin: miter">
<path d="M626.7057,974.0917L626.7057,974.0917L604.74854,989.48376L598.3873,980.4094L620.3445,965.01733L626.7057,974.0917 M620.3445,965.01733C622.8503,963.26074,626.30566,963.8681,628.06226,966.3739C629.81885,968.8797,629.2115,972.3351,626.7057,974.0917L626.7057,974.0917L604.74854,989.48376C602.24274,991.24036,598.78735,990.633,597.03076,988.1272C595.2742,985.6214,595.88153,982.166,598.3873,980.4094L598.3873,980.4094L620.3445,965.01733 Z"/>
</g>
<g style="fill:rgb(255,255,255); fill-opacity:1.0; stroke-linejoin: miter">
<path d="M677.3406,1191.2606L677.3406,1191.2626C680.0295,1191.2618,682.2248,1193.426,682.2567,1196.1226C682.7418,1237.0363,686.0051,1277.9252,695.0845,1317.5558L695.08496,1317.5579C700.13245,1339.3892,707.1605,1360.7113,717.4198,1380.3594L717.4201,1380.3613C727.7139,1400.0726,741.3348,1418.1461,759.69037,1429.2212C759.70917,1429.2327,759.7284,1429.243,759.7481,1429.252L759.7454,1429.2539C768.9034,1434.7625,778.8473,1438.5806,788.7907,1438.5826L788.81244,1438.5823L788.8703,1438.5803L788.85443,1438.5806L788.87494,1438.5801C792.0964,1438.4575,795.2204,1437.8715,798.0747,1436.7607L798.1499,1436.7228L798.088,1436.7546L798.17926,1436.7174L798.1961,1436.7104L798.1978,1436.7096L798.1993,1436.7115C801.09766,1435.5603,803.6853,1433.8599,805.6645,1431.7113C805.6651,1431.7104,805.66583,1431.7097,805.66656,1431.7091L805.6651,1431.711C807.6516,1429.5498,809.00635,1426.9271,809.46765,1424.2516L809.4679,1424.2491L809.4678,1424.2513C809.92993,1421.5674,809.4704,1418.8135,808.20465,1416.6678L808.20465,1416.6698C806.8241,1414.3269,807.6026,1411.3102,809.943,1409.93L809.953,1409.9241L809.9543,1409.9233L809.95435,1409.9253C810.7358,1409.4652,811.594,1409.2467,812.4376,1409.2467C814.12366,1409.2467,815.76337,1410.1133,816.68054,1411.6685L816.6806,1411.6707C819.2448,1416.0155,819.9836,1421.1718,819.1653,1425.9202C818.3468,1430.6705,816.0256,1434.981,812.90857,1438.3717L812.9067,1438.3737C809.82776,1441.7181,805.9874,1444.189,801.9424,1445.8129L801.9392,1445.8148C801.924,1445.8179,801.90894,1445.8232,801.89404,1445.8292L801.7853,1445.8738L801.78204,1445.875L801.7823,1445.8771L801.77924,1445.8763L801.7788,1445.8783C799.9713,1446.59,798.12366,1447.1383,796.25397,1447.5448C796.00226,1447.5996,795.81683,1447.8011,795.77386,1448.0437L795.77075,1448.0458C793.6242,1454.7865,792.30347,1461.7739,791.9291,1468.7971C791.5017,1476.8157,792.2833,1484.7388,794.9626,1491.8716L794.9626,1491.8718C796.38824,1495.667,798.3518,1499.1383,800.8947,1501.9841C800.90985,1502.0012,800.9259,1502.017,800.94244,1502.0321L800.9393,1502.034C803.4668,1504.843,806.58417,1507.0093,809.95276,1508.1538C809.9728,1508.1605,809.99304,1508.1661,810.0134,1508.1709L810.0102,1508.1729C811.8079,1508.7738,813.7159,1509.0833,815.62463,1509.0833C818.0638,1509.0833,820.45465,1508.5776,822.5792,1507.5907C822.58655,1507.5875,822.5938,1507.5837,822.601,1507.5801L822.59753,1507.582C826.4286,1505.7904,829.50885,1502.3629,830.85974,1498.378C831.5418,1496.3663,833.42773,1495.0375,835.51587,1495.0375C835.6837,1495.0375,835.83636,1495.0447,836.005,1495.0618L836.0053,1495.0637C838.28314,1495.2875,840.1041,1497.0543,840.39886,1499.3242C841.29333,1506.2157,844.6102,1512.8009,849.61633,1517.6227L849.61847,1517.6246C850.9701,1518.9236,852.4441,1520.0958,854.01215,1521.1272L854.0085,1521.1293C853.192,1521.2443,852.38556,1521.5282,851.6412,1521.9893L851.6412,1521.9916C848.97406,1523.6415,848.00684,1526.9984,849.2752,1529.7798C846.9674,1528.3262,844.8071,1526.6443,842.83527,1524.7518L842.83167,1524.7539C842.8189,1524.737,842.8053,1524.7225,842.7912,1524.7091C839.15894,1521.2119,836.208,1517.0302,834.09,1512.4635C834.03613,1512.3473,833.94763,1512.2507,833.8366,1512.1865L833.8331,1512.1844C833.7364,1512.1288,833.6294,1512.1016,833.52295,1512.1016C833.37195,1512.1016,833.2221,1512.1565,833.1048,1512.2631C831.2148,1513.9789,829.07043,1515.4185,826.7526,1516.502L826.74915,1516.5042C826.7426,1516.5049,826.736,1516.5078,826.7296,1516.5109C823.218,1518.1447,819.4033,1518.9236,815.62463,1518.9236C812.65295,1518.9236,809.6775,1518.4424,806.8493,1517.4921L806.8461,1517.494C806.82825,1517.4845,806.81006,1517.4769,806.79126,1517.4708C801.60767,1515.7117,797.10364,1512.4917,793.59766,1508.5846L793.5946,1508.5867C793.5835,1508.5696,793.57166,1508.555,793.55927,1508.5413C790.0573,1504.6248,787.52313,1500.0453,785.7574,1495.3522L785.7543,1495.3541L785.75055,1495.332C782.4602,1486.572,781.6264,1477.2072,782.10266,1468.2733C782.4484,1461.7856,783.5104,1455.3538,785.2018,1449.1095L785.1988,1449.1115C785.2499,1448.9872,785.2618,1448.8489,785.2271,1448.7145C785.1609,1448.4585,784.93994,1448.272,784.67633,1448.2501C775.5498,1447.4976,766.86365,1444.3301,759.05426,1440.1722L759.0515,1440.1743C758.94934,1440.1069,758.83185,1440.074,758.7153,1440.074C758.63776,1440.074,758.5607,1440.0886,758.4889,1440.118L758.4875,1440.1201C758.424,1440.144,758.3286,1440.1829,758.29736,1440.1959L758.2946,1440.1979C751.5651,1442.8536,744.4151,1444.4097,737.2151,1444.8403L737.21515,1444.8423C735.8341,1444.9227,734.47,1444.9636,733.08563,1444.9636C729.3798,1444.9636,725.67523,1444.666,722.0131,1444.0658L722.01306,1444.0679C709.8211,1442.0679,698.3007,1436.7443,688.71985,1429.0986L688.7199,1429.1006C676.92535,1419.686,668.2334,1406.9854,662.3934,1393.4457C648.7685,1361.8569,648.9272,1326.3463,652.3692,1293.1975C655.8036,1260.123,662.9755,1227.5558,672.405,1195.8107L672.40314,1195.8129C672.42487,1195.7576,672.4393,1195.7008,672.44556,1195.643C672.7104,1193.203,674.7632,1191.2909,677.2786,1191.2612L677.2783,1191.2632C677.2783,1191.2612,677.3407,1191.2606,677.3387,1191.2606 Z M507.30746,1072.2415C506.98965,1072.2415,506.72305,1072.4807,506.68933,1072.7968L504.85776,1089.9572C504.59015,1092.4645,502.47437,1094.3553,499.96768,1094.3553C499.93323,1094.3553,499.87674,1094.3546,499.83774,1094.3536L499.83786,1094.3556C498.6739,1094.3231,497.5688,1094.309,496.40482,1094.309C468.1678,1094.309,439.95438,1103.3225,417.0635,1119.825L417.0629,1119.8269C417.05185,1119.8318,417.04105,1119.8394,417.0305,1119.8469C395.16724,1135.6168,378.41605,1158.3007,369.2544,1183.733L369.25366,1183.735C360.0739,1209.2153,358.9654,1236.9027,358.05072,1264.9872C357.5576,1280.1285,356.7599,1295.8622,352.88943,1311.1168C348.99313,1326.4736,341.7259,1341.1626,331.01987,1353.1094C320.34775,1365.0181,306.831,1373.7169,293.3468,1381.0585L293.3449,1381.0604C293.33502,1381.0634,293.3252,1381.0684,293.3155,1381.0736C289.90295,1382.9307,286.50708,1384.7203,283.10797,1386.5117L283.1078,1386.5137C282.91467,1386.6133,282.85846,1386.6428,282.85834,1386.6428L282.85876,1386.6448C282.8282,1386.6588,282.78992,1386.6792,282.74243,1386.7041L282.74042,1386.7062C282.7312,1386.7084,282.7221,1386.7128,282.71307,1386.7178C272.77295,1391.951,263.10782,1397.0458,254.10007,1403.1249L254.09775,1403.1271C254.09183,1403.1285,254.08597,1403.1323,254.08012,1403.1362C240.28004,1412.4502,228.00186,1423.9984,217.96074,1437.251C212.03532,1445.0717,206.90576,1453.3983,203.12178,1462.2551C199.33719,1471.1129,196.97635,1480.4513,197.01445,1489.7332C197.04361,1496.8289,198.5249,1503.8357,201.65771,1509.9271C204.78596,1516.0099,209.62917,1521.1648,215.49213,1524.3524C220.00923,1526.8086,225.16107,1528.1133,230.30748,1528.1133C231.21666,1528.1133,232.1019,1528.0743,233.00438,1527.9948C233.02144,1527.9933,233.03831,1527.9907,233.05496,1527.988L233.05241,1527.9901C239.95396,1527.3549,246.6376,1524.2948,251.63364,1519.4868C251.6344,1519.4862,251.63521,1519.4854,251.63596,1519.4846L251.63391,1519.4867C256.64008,1514.6648,259.9569,1508.0795,260.85147,1501.1881C261.14618,1498.9175,262.96716,1497.1514,265.24503,1496.9253L265.24542,1496.9275C265.41385,1496.9084,265.5667,1496.9012,265.73395,1496.9012C267.82227,1496.9012,269.7085,1498.2301,270.39044,1500.2418C271.74393,1504.2341,274.83093,1507.6646,278.67035,1509.4542C278.68808,1509.4623,278.70612,1509.4698,278.72437,1509.4763L278.72232,1509.4783C280.8343,1510.4496,283.20624,1510.947,285.62573,1510.947C287.5541,1510.947,289.48312,1510.6312,291.29654,1510.0178C291.3097,1510.0134,291.32266,1510.0087,291.33533,1510.0032L291.33344,1510.0054C294.70892,1508.85,297.82782,1506.6725,300.35516,1503.8483C300.35587,1503.8475,300.35654,1503.8469,300.3572,1503.8461L300.35544,1503.848C302.89798,1501.0026,304.8626,1497.5295,306.28775,1493.7377L306.28818,1493.7354L306.28778,1493.7373C308.96692,1486.6027,309.74866,1478.6791,309.32126,1470.6609C308.9466,1463.6326,307.624,1456.6388,305.4745,1449.8937L305.47272,1449.8959C305.46783,1449.8691,305.4614,1449.8442,305.45346,1449.8201C305.38467,1449.6105,305.20996,1449.4534,304.99435,1449.4066C303.1253,1449.0021,301.28613,1448.4554,299.4783,1447.7428L299.47806,1447.7448L299.45978,1447.7351C295.36575,1446.1171,291.46976,1443.6288,288.3554,1440.2487L288.35342,1440.2506L288.3435,1440.2355C285.23077,1436.8519,282.91144,1432.5496,282.08917,1427.8098L282.08713,1427.8119L282.08502,1427.784C281.26672,1423.0353,282.0056,1417.8793,284.56973,1413.5321C285.48724,1411.9766,287.12625,1411.1107,288.81274,1411.1107C289.66068,1411.1107,290.52274,1411.3309,291.3073,1411.7938L291.30734,1411.796C293.64783,1413.1742,294.4262,1416.1907,293.0456,1418.5315L293.0456,1418.5336C291.7799,1420.6772,291.3205,1423.4315,291.7826,1426.1151C291.78568,1426.1334,291.78952,1426.151,291.7941,1426.1683L291.7922,1426.1703C292.2625,1428.8264,293.61237,1431.4288,295.58505,1433.5748C295.59924,1433.5902,295.6141,1433.6047,295.62955,1433.6184L295.62762,1433.6204C297.60645,1435.7537,300.19083,1437.4435,303.07822,1438.5844L303.07785,1438.5863C303.09912,1438.595,303.12106,1438.6044,303.14365,1438.6123L303.18295,1438.6265C303.19382,1438.6304,303.20474,1438.634,303.2157,1438.6373L303.2139,1438.6393C306.05847,1439.7407,309.17688,1440.3232,312.38443,1440.446L312.43268,1440.448L312.4712,1440.4446L312.46948,1440.4467C322.42892,1440.4421,332.3901,1436.6089,341.5595,1431.0852C341.56973,1431.0791,341.5797,1431.0726,341.5895,1431.0659L341.58807,1431.0681C359.92953,1419.9915,373.54205,1401.9263,383.83038,1382.2251C383.83075,1382.2242,383.83112,1382.2235,383.83145,1382.2228L383.83057,1382.2251C394.08997,1362.5751,401.11804,1341.2521,406.16556,1319.4208L406.16595,1319.4174L406.1659,1319.4196C415.24524,1279.789,418.50858,1238.8998,418.9936,1197.9865C419.02554,1195.2898,421.22174,1193.1246,423.91135,1193.1244L423.91193,1193.1263C423.91245,1193.1244,423.97195,1193.1249,423.97195,1193.1249L423.97174,1193.127C426.48477,1193.1547,428.53638,1195.064,428.80405,1197.5024C428.80994,1197.5557,428.82242,1197.6068,428.84067,1197.655L428.84015,1197.6571C438.27203,1229.4071,445.44626,1261.982,448.88107,1295.0615C452.32315,1328.2098,452.48196,1363.7207,438.857,1395.3093C433.0169,1408.8494,424.325,1421.55,412.53046,1430.9626L412.53046,1430.9646C402.94882,1438.6089,391.43002,1443.9313,379.2373,1445.9298L379.2373,1445.9318C375.57178,1446.5304,371.8745,1446.8273,368.16544,1446.8273C366.78076,1446.8273,365.41644,1446.7864,364.0352,1446.7039L364.03525,1446.706C356.80295,1446.2716,349.62344,1444.704,342.86737,1442.0248L342.86877,1442.0267C342.85495,1442.0198,342.841,1442.0143,342.82715,1442.0094L342.82806,1442.0114C342.81265,1442.003,342.803,1441.9989,342.79346,1441.9955L342.79208,1441.9974C342.71042,1441.9576,342.62125,1441.9381,342.5311,1441.9381C342.43198,1441.9381,342.33167,1441.9619,342.23877,1442.0114C334.43173,1446.1753,325.74704,1449.349,316.6209,1450.1124L316.61923,1450.1144C316.43765,1450.1149,316.26328,1450.197,316.14575,1450.3418L316.14407,1450.3438C316.00204,1450.5187,315.96634,1450.7557,316.04794,1450.9631L316.04626,1450.9651C317.7391,1457.212,318.8017,1463.646,319.14774,1470.1371C319.23477,1471.77,319.2781,1473.4199,319.27054,1475.0778C319.26978,1475.2528,319.34277,1475.4199,319.47156,1475.5382C319.58667,1475.6439,319.73688,1475.7021,319.8919,1475.7021C319.91034,1475.7021,319.92883,1475.7014,319.94733,1475.6997L373.3321,1470.942L373.54062,1470.928L373.53952,1470.9299C377.99622,1470.7126,382.49792,1470.6044,386.95856,1470.6044C416.82742,1470.6044,446.70184,1475.3987,475.0641,1484.7838C475.0799,1484.7892,475.09586,1484.7937,475.11185,1484.7976L475.1118,1484.7997C494.16245,1491.1036,512.52954,1499.4628,529.79785,1509.6873C529.8954,1509.7451,530.00494,1509.774,530.1145,1509.774C530.15137,1509.774,530.18823,1509.7709,530.22473,1509.7642L530.2242,1509.7661C558.53503,1506.8893,586.54834,1500.9694,614.81006,1494.9924C614.8254,1494.989,614.8405,1494.9851,614.85535,1494.981L614.854,1494.9829L615.14307,1494.9198L615.14325,1494.9219C618.23267,1494.2661,621.92633,1493.4854,625.01556,1492.8385C625.03046,1492.8356,625.04504,1492.8315,625.0595,1492.8276L625.0581,1492.8296C641.504,1489.3756,658.5581,1486.3604,675.8291,1486.3604C677.7979,1486.3604,679.7116,1486.3981,681.68475,1486.4814C681.69366,1486.4818,681.70245,1486.482,681.7112,1486.482C681.7191,1486.482,681.72705,1486.482,681.7349,1486.4814L681.7369,1486.4835C709.3427,1487.631,736.9106,1498.2135,756.93536,1517.6581C758.88513,1519.5514,758.93024,1522.6664,757.0376,1524.6154C756.0726,1525.6094,754.79224,1526.1079,753.5073,1526.1079C752.2717,1526.1079,751.03613,1525.646,750.0801,1524.7178C731.9894,1507.1509,706.81116,1497.3762,681.33356,1496.3159L681.3316,1496.3179C681.31464,1496.3136,681.29755,1496.3124,681.2802,1496.3115C679.4683,1496.237,677.62915,1496.2007,675.81586,1496.2007C659.64264,1496.2007,643.4,1499.0322,627.0565,1502.465L627.05505,1502.4669L627.0364,1502.469C623.7786,1503.1511,620.16113,1503.9163,616.8939,1504.6094L616.8926,1504.6115C616.877,1504.6115,616.8615,1504.6144,616.846,1504.6176L616.6649,1504.6562L616.6657,1504.656L615.90784,1504.8163L615.9079,1504.8182C586.35876,1511.067,556.41614,1517.3693,525.96326,1520.0544L525.9628,1520.0566C525.9125,1520.0549,525.8618,1520.0616,525.8119,1520.0748L465.20197,1535.9458L465.1991,1535.9464L465.19205,1535.9482C465.09244,1535.9742,464.9967,1535.996,464.89645,1536.0154L464.89542,1536.0155C462.09048,1536.5613,459.2221,1536.8346,456.37164,1536.8346C453.10828,1536.8346,449.8388,1536.4785,446.6461,1535.7687L446.6457,1535.7706C446.63055,1535.7639,446.6151,1535.7598,446.59946,1535.7562C439.70862,1534.2115,433.20538,1531.0078,427.7804,1526.4893L427.77988,1526.4912C427.76443,1526.4741,427.74814,1526.4596,427.731,1526.4459C423.48645,1523.0482,418.49542,1520.5767,413.2199,1519.2632L413.2192,1519.2651C413.20288,1519.2577,413.18616,1519.2528,413.1692,1519.2487C410.29156,1518.5353,407.3107,1518.1833,404.32095,1518.1833C395.53006,1518.1833,386.74777,1521.2131,380.01657,1526.7394L380.0155,1526.7415C380.0069,1526.7458,379.9984,1526.7528,379.99005,1526.76L322.3256,1576.4595L322.32556,1576.4598C322.22882,1576.5436,322.10803,1576.639,322.00473,1576.714L322.0046,1576.716C318.14178,1579.5194,315.31485,1583.7744,314.22583,1588.4249L314.2254,1588.4269C313.13727,1593.0723,313.7801,1598.14,315.99463,1602.3687C318.49756,1607.1476,323.0472,1610.8679,328.2279,1612.3739C328.24475,1612.3788,328.26175,1612.383,328.2788,1612.3866L328.27725,1612.3885C330.0479,1612.8951,331.89694,1613.1486,333.76996,1613.1486C337.33505,1613.1486,340.8827,1612.2252,343.91656,1610.4747L343.91684,1610.4767C344.02805,1610.4104,344.149,1610.3469,344.26453,1610.2921L344.26474,1610.2941C368.15424,1598.9485,393.7874,1591.4363,419.9199,1587.7112C419.93604,1587.709,419.95197,1587.7059,419.96768,1587.7025L419.96704,1587.7045C434.6087,1585.6173,449.3637,1584.7108,464.0963,1584.7108C469.7669,1584.7108,475.43234,1584.8453,481.0871,1585.1011C481.0964,1585.1014,481.10577,1585.1014,481.11505,1585.1014C481.12247,1585.1014,481.12985,1585.1014,481.1373,1585.1013L481.1373,1585.1033C514.0616,1586.5815,546.548,1591.9535,578.7139,1597.2732L578.71313,1597.2751L578.8357,1597.2935C578.85376,1597.2968,578.87177,1597.299,578.8899,1597.3002L578.8889,1597.3021L579.87634,1597.4635L579.8763,1597.4655C595.6255,1600.067,611.28046,1602.645,626.9936,1604.7708C627.0106,1604.7732,627.0278,1604.7748,627.04474,1604.7758L627.0434,1604.7777C653.5949,1608.3625,680.41315,1610.3738,707.16473,1610.3738C746.038,1610.3738,784.73474,1606.1254,822.199,1596.3008L822.1978,1596.3027L822.4414,1596.2426L822.44196,1596.2449C833.2866,1593.9126,843.192,1587.296,849.49677,1578.1716C849.4972,1578.171,849.4976,1578.1705,849.4981,1578.1697L849.49677,1578.1716C854.34143,1571.1567,857.0961,1562.6959,857.3089,1554.1754C857.4914,1546.8693,855.80566,1539.5154,852.49316,1533.0021L852.4969,1533.004C856.4392,1534.9424,860.6838,1536.2743,865.0391,1536.9092C865.06903,1536.9135,865.099,1536.9156,865.1289,1536.9156C865.27716,1536.9156,865.4217,1536.8625,865.53534,1536.7643C865.67194,1536.6464,865.7504,1536.4746,865.7504,1536.2941L865.7504,1536.2921L865.7205,1536.1013C864.3942,1531.9868,862.5905,1528.0251,860.33813,1524.328L860.3419,1524.33C862.8842,1525.2714,865.5486,1525.8857,868.2442,1526.1306C868.263,1526.1323,868.28174,1526.133,868.3005,1526.133L868.297,1526.135C869.1896,1526.2118,870.0425,1526.2489,870.9429,1526.2489C876.091,1526.2489,881.23914,1524.9456,885.7582,1522.4885C891.6217,1519.3005,896.46375,1514.1469,899.5925,1508.0635L899.5925,1508.0654C902.7254,1501.9717,904.2068,1494.965,904.2358,1487.8691C904.27405,1478.5873,901.9132,1469.249,898.1286,1460.391C894.34515,1451.5359,889.2144,1443.2068,883.2896,1435.387C873.2581,1422.1476,860.9927,1410.6077,847.2086,1401.2982L847.20557,1401.3002L847.16504,1401.2683C838.16833,1395.1974,828.51996,1390.1096,818.5925,1384.8848L818.5891,1384.8867C818.5714,1384.8728,818.55286,1384.8617,818.5336,1384.8518L818.43665,1384.801L818.43634,1384.8031C814.966,1382.974,811.47363,1381.1346,807.9914,1379.2423L807.98816,1379.2443C807.971,1379.2306,807.95325,1379.2197,807.9348,1379.2096C794.44037,1371.8663,780.9108,1363.1635,770.2305,1351.2455C759.5247,1339.2992,752.257,1324.6088,748.3609,1309.2528C744.4905,1293.9983,743.69275,1278.2654,743.1996,1263.1234C742.285,1235.0385,741.17633,1207.3501,731.996,1181.8673C722.84106,1156.4557,706.1065,1133.785,684.2663,1118.0184L684.2643,1118.0204C684.2499,1118.0057,684.23486,1117.9941,684.21924,1117.9828C661.3219,1101.4667,633.0965,1092.4452,604.8455,1092.4452C603.68463,1092.4452,602.5735,1092.4597,601.4127,1092.4896L601.4127,1092.4916C601.37354,1092.4906,601.319,1092.4913,601.2822,1092.4913C598.7759,1092.4913,596.66016,1090.5999,596.39264,1088.0935L594.9133,1074.2354L594.8406,1074.0035L594.8395,1074.0012C594.7274,1073.7966,594.5151,1073.678,594.2938,1073.678C594.2141,1073.678,594.1332,1073.6934,594.0554,1073.7256C581.09717,1079.1141,567.09076,1081.9689,553.0539,1082.0498L553.0539,1082.0518C553.0385,1082.0483,553.0231,1082.0479,553.00745,1082.0479L553.0027,1082.05C552.89984,1082.0486,552.5495,1082.0496,552.45715,1082.0496C537.0217,1082.0496,521.6121,1078.6855,507.56503,1072.2971C507.48422,1072.2603,507.39645,1072.2415,507.3077,1072.2415 Z"/>
</g>
<g style="fill:rgb(255,255,255); fill-opacity:1.0; stroke-linejoin: miter">
<path d="M386.95856,1480.4452C382.6816,1480.4452,378.44476,1480.5454,374.17322,1480.7511C374.167,1480.7511,374.16074,1480.7509,374.15445,1480.7509C374.13617,1480.7509,374.11777,1480.7518,374.09937,1480.7535L318.9787,1485.6656L318.98,1485.6677C318.96628,1485.6667,318.90536,1485.6719,318.8429,1485.6882C318.57886,1485.7563,318.39502,1485.987,318.3785,1486.2506L318.37686,1486.2526C317.7742,1489.9534,316.84106,1493.6249,315.49973,1497.1978L315.49902,1497.1997C313.7335,1501.8972,311.1964,1506.485,307.69107,1510.4053L307.63092,1510.4895L307.68393,1510.4152L307.68222,1510.4171C304.1747,1514.3347,299.6612,1517.5679,294.4672,1519.3337L294.46533,1519.3357L294.4573,1519.3351C291.61334,1520.2998,288.61633,1520.7875,285.62573,1520.7875C281.86737,1520.7875,278.06702,1520.0159,274.57147,1518.4005L274.5694,1518.4025C274.5526,1518.3906,274.53528,1518.3815,274.51743,1518.3733C272.1917,1517.2902,270.04535,1515.8513,268.1488,1514.1321L268.149,1514.134C268.0327,1514.0236,267.88058,1513.9648,267.7245,1513.9648C267.6849,1513.9648,267.64514,1513.9683,267.60565,1513.9762C267.40997,1514.014,267.24448,1514.1442,267.16064,1514.325C265.04254,1518.894,262.09183,1523.0757,258.45917,1526.5732C258.4483,1526.5836,258.43787,1526.5942,258.4278,1526.6057L258.42554,1526.6077C251.82396,1532.9468,243.0582,1536.9554,233.93773,1537.7906L233.93524,1537.7928C233.91982,1537.7909,233.90439,1537.7919,233.88896,1537.7933C232.67603,1537.9025,231.52197,1537.954,230.30748,1537.954C226.59239,1537.954,222.88023,1537.4398,219.3017,1536.4432L219.13493,1536.4204L219.1323,1536.4224C218.96214,1536.4204,218.79945,1536.49,218.6821,1536.6134C218.56476,1536.7367,218.50308,1536.9026,218.51143,1537.0724C219.0384,1547.7759,222.43117,1558.3528,228.29782,1567.3232L228.2992,1567.3252C235.34715,1578.0961,245.95482,1586.5304,258.03915,1590.9694C264.65985,1593.4015,271.7217,1594.6117,278.80377,1594.6117C281.9481,1594.6117,285.09082,1594.3733,288.2031,1593.8984C288.21826,1593.8962,288.23328,1593.8934,288.24802,1593.8898L288.2461,1593.8917C293.61472,1593.0631,298.8649,1591.5278,303.7904,1589.3068C303.8699,1589.271,303.94095,1589.2186,303.99902,1589.1537L304.00082,1589.1517C304.0826,1589.0599,304.1353,1588.9459,304.15228,1588.824C304.27582,1587.9368,304.44016,1587.0519,304.64474,1586.1807L304.64505,1586.1781L304.64484,1586.1804C306.25336,1579.312,310.35028,1573.0928,316.01947,1568.9022L316.1245,1568.803L316.0575,1568.8713L373.63727,1519.2445L373.6321,1519.2488L373.72247,1519.1729L373.72253,1519.1748C382.29388,1512.1173,393.3292,1508.3427,404.32095,1508.3427C408.08075,1508.3427,411.85455,1508.7843,415.53674,1509.6992C415.55228,1509.7031,415.5679,1509.7063,415.58356,1509.7091L415.58286,1509.711C422.25552,1511.37,428.5542,1514.4913,433.91776,1518.7932L433.91757,1518.7952L434.00516,1518.8651L434.00528,1518.8673C438.2452,1522.4187,443.35416,1524.9434,448.75186,1526.1558C448.76913,1526.1594,448.78647,1526.1627,448.80386,1526.165L448.80353,1526.1672C451.2881,1526.7181,453.81863,1526.9939,456.37164,1526.9939C458.54086,1526.9939,460.7187,1526.792,462.84372,1526.3916C462.8744,1526.3857,462.9042,1526.3778,462.93298,1526.3678L462.9328,1526.3699L513.5909,1513.1049C513.8314,1513.0416,514.01135,1512.8413,514.0482,1512.5953L514.04846,1512.5934C514.08746,1512.3326,513.95776,1512.0756,513.72485,1511.9521C500.35422,1504.863,486.38596,1498.895,472.01712,1494.1407L472.017,1494.1427C472.00275,1494.1349,471.98816,1494.1293,471.9734,1494.1245C444.60974,1485.0717,415.7837,1480.4452,386.95856,1480.4452 Z"/>
</g>
<g style="fill:rgb(0,0,0); fill-opacity:1.0; stroke-linejoin: miter">
<path d="M847.04956,1527.486L853.26764,1533.8636L865.0501,1537.5479L866.48883,1535.6522L866.9585,1530.4448L860.60583,1524.4386L853.745,1520.9872L849.4071,1522.2881Q849.1867,1522.302,848.70105,1522.4579Q848.0006,1522.7125,847.4881,1523.2167Q845.723,1525.1924,847.04956,1527.486"/>
</g>
</g>
</svg>